<?xml version="1.0" encoding="utf-8" standalone="no"?>
<!DOCTYPE svg PUBLIC "-//W3C//DTD SVG 1.1//EN"
  "http://www.w3.org/Graphics/SVG/1.1/DTD/svg11.dtd">
<svg xmlns:xlink="http://www.w3.org/1999/xlink" width="517.620159pt" height="260.889724pt" viewBox="0 0 517.620159 260.889724" xmlns="http://www.w3.org/2000/svg" version="1.1">
 <metadata>
  <rdf:RDF xmlns:dc="http://purl.org/dc/elements/1.1/" xmlns:cc="http://creativecommons.org/ns#" xmlns:rdf="http://www.w3.org/1999/02/22-rdf-syntax-ns#">
   <cc:Work>
    <dc:type rdf:resource="http://purl.org/dc/dcmitype/StillImage"/>
    <dc:date>2026-01-13T15:26:19.381818</dc:date>
    <dc:format>image/svg+xml</dc:format>
    <dc:creator>
     <cc:Agent>
      <dc:title>Matplotlib v3.10.7, https://matplotlib.org/</dc:title>
     </cc:Agent>
    </dc:creator>
   </cc:Work>
  </rdf:RDF>
 </metadata>
 <defs>
  <style type="text/css">*{stroke-linejoin: round; stroke-linecap: butt}</style>
 </defs>
 <g id="figure_1">
  <g id="patch_1">
   <path d="M 0 260.889724 
L 517.620159 260.889724 
L 517.620159 0 
L 0 0 
z
" style="fill: #ffffff"/>
  </g>
  <g id="axes_1">
   <g id="patch_2">
    <path d="M 52.057031 224.897849 
L 414.537346 224.897849 
L 414.537346 22.318125 
L 52.057031 22.318125 
z
" style="fill: #ffffff"/>
   </g>
   <g id="matplotlib.axis_1">
    <g id="xtick_1">
     <g id="line2d_1">
      <defs>
       <path id="ma19d244673" d="M 0 0 
L 0 -4 
" style="stroke: #000000"/>
      </defs>
      <g>
       <use xlink:href="#ma19d244673" x="68.533409" y="224.897849" style="stroke: #000000"/>
      </g>
     </g>
     <g id="line2d_2">
      <defs>
       <path id="me8ed5f600c" d="M 0 0 
L 0 4 
" style="stroke: #000000"/>
      </defs>
      <g>
       <use xlink:href="#me8ed5f600c" x="68.533409" y="22.318125" style="stroke: #000000"/>
      </g>
     </g>
     <g id="text_1">
      <!-- −20 -->
      <g transform="translate(56.925831 236.756131) scale(0.11 -0.11)">
       <defs>
        <path id="DejaVuSans-2212" d="M 678 2272 
L 4684 2272 
L 4684 1741 
L 678 1741 
L 678 2272 
z
" transform="scale(0.015625)"/>
        <path id="DejaVuSans-32" d="M 1228 531 
L 3431 531 
L 3431 0 
L 469 0 
L 469 531 
Q 828 903 1448 1529 
Q 2069 2156 2228 2338 
Q 2531 2678 2651 2914 
Q 2772 3150 2772 3378 
Q 2772 3750 2511 3984 
Q 2250 4219 1831 4219 
Q 1534 4219 1204 4116 
Q 875 4013 500 3803 
L 500 4441 
Q 881 4594 1212 4672 
Q 1544 4750 1819 4750 
Q 2544 4750 2975 4387 
Q 3406 4025 3406 3419 
Q 3406 3131 3298 2873 
Q 3191 2616 2906 2266 
Q 2828 2175 2409 1742 
Q 1991 1309 1228 531 
z
" transform="scale(0.015625)"/>
        <path id="DejaVuSans-30" d="M 2034 4250 
Q 1547 4250 1301 3770 
Q 1056 3291 1056 2328 
Q 1056 1369 1301 889 
Q 1547 409 2034 409 
Q 2525 409 2770 889 
Q 3016 1369 3016 2328 
Q 3016 3291 2770 3770 
Q 2525 4250 2034 4250 
z
M 2034 4750 
Q 2819 4750 3233 4129 
Q 3647 3509 3647 2328 
Q 3647 1150 3233 529 
Q 2819 -91 2034 -91 
Q 1250 -91 836 529 
Q 422 1150 422 2328 
Q 422 3509 836 4129 
Q 1250 4750 2034 4750 
z
" transform="scale(0.015625)"/>
       </defs>
       <use xlink:href="#DejaVuSans-2212"/>
       <use xlink:href="#DejaVuSans-32" transform="translate(83.789062 0)"/>
       <use xlink:href="#DejaVuSans-30" transform="translate(147.412109 0)"/>
      </g>
     </g>
    </g>
    <g id="xtick_2">
     <g id="line2d_3">
      <g>
       <use xlink:href="#ma19d244673" x="109.765586" y="224.897849" style="stroke: #000000"/>
      </g>
     </g>
     <g id="line2d_4">
      <g>
       <use xlink:href="#me8ed5f600c" x="109.765586" y="22.318125" style="stroke: #000000"/>
      </g>
     </g>
     <g id="text_2">
      <!-- −15 -->
      <g transform="translate(98.158008 236.756131) scale(0.11 -0.11)">
       <defs>
        <path id="DejaVuSans-31" d="M 794 531 
L 1825 531 
L 1825 4091 
L 703 3866 
L 703 4441 
L 1819 4666 
L 2450 4666 
L 2450 531 
L 3481 531 
L 3481 0 
L 794 0 
L 794 531 
z
" transform="scale(0.015625)"/>
        <path id="DejaVuSans-35" d="M 691 4666 
L 3169 4666 
L 3169 4134 
L 1269 4134 
L 1269 2991 
Q 1406 3038 1543 3061 
Q 1681 3084 1819 3084 
Q 2600 3084 3056 2656 
Q 3513 2228 3513 1497 
Q 3513 744 3044 326 
Q 2575 -91 1722 -91 
Q 1428 -91 1123 -41 
Q 819 9 494 109 
L 494 744 
Q 775 591 1075 516 
Q 1375 441 1709 441 
Q 2250 441 2565 725 
Q 2881 1009 2881 1497 
Q 2881 1984 2565 2268 
Q 2250 2553 1709 2553 
Q 1456 2553 1204 2497 
Q 953 2441 691 2322 
L 691 4666 
z
" transform="scale(0.015625)"/>
       </defs>
       <use xlink:href="#DejaVuSans-2212"/>
       <use xlink:href="#DejaVuSans-31" transform="translate(83.789062 0)"/>
       <use xlink:href="#DejaVuSans-35" transform="translate(147.412109 0)"/>
      </g>
     </g>
    </g>
    <g id="xtick_3">
     <g id="line2d_5">
      <g>
       <use xlink:href="#ma19d244673" x="150.997763" y="224.897849" style="stroke: #000000"/>
      </g>
     </g>
     <g id="line2d_6">
      <g>
       <use xlink:href="#me8ed5f600c" x="150.997763" y="22.318125" style="stroke: #000000"/>
      </g>
     </g>
     <g id="text_3">
      <!-- −10 -->
      <g transform="translate(139.390185 236.756131) scale(0.11 -0.11)">
       <use xlink:href="#DejaVuSans-2212"/>
       <use xlink:href="#DejaVuSans-31" transform="translate(83.789062 0)"/>
       <use xlink:href="#DejaVuSans-30" transform="translate(147.412109 0)"/>
      </g>
     </g>
    </g>
    <g id="xtick_4">
     <g id="line2d_7">
      <g>
       <use xlink:href="#ma19d244673" x="192.22994" y="224.897849" style="stroke: #000000"/>
      </g>
     </g>
     <g id="line2d_8">
      <g>
       <use xlink:href="#me8ed5f600c" x="192.22994" y="22.318125" style="stroke: #000000"/>
      </g>
     </g>
     <g id="text_4">
      <!-- −5 -->
      <g transform="translate(184.121737 236.756131) scale(0.11 -0.11)">
       <use xlink:href="#DejaVuSans-2212"/>
       <use xlink:href="#DejaVuSans-35" transform="translate(83.789062 0)"/>
      </g>
     </g>
    </g>
    <g id="xtick_5">
     <g id="line2d_9">
      <g>
       <use xlink:href="#ma19d244673" x="233.462117" y="224.897849" style="stroke: #000000"/>
      </g>
     </g>
     <g id="line2d_10">
      <g>
       <use xlink:href="#me8ed5f600c" x="233.462117" y="22.318125" style="stroke: #000000"/>
      </g>
     </g>
     <g id="text_5">
      <!-- 0 -->
      <g transform="translate(229.962742 236.756131) scale(0.11 -0.11)">
       <use xlink:href="#DejaVuSans-30"/>
      </g>
     </g>
    </g>
    <g id="xtick_6">
     <g id="line2d_11">
      <g>
       <use xlink:href="#ma19d244673" x="274.694294" y="224.897849" style="stroke: #000000"/>
      </g>
     </g>
     <g id="line2d_12">
      <g>
       <use xlink:href="#me8ed5f600c" x="274.694294" y="22.318125" style="stroke: #000000"/>
      </g>
     </g>
     <g id="text_6">
      <!-- 5 -->
      <g transform="translate(271.194919 236.756131) scale(0.11 -0.11)">
       <use xlink:href="#DejaVuSans-35"/>
      </g>
     </g>
    </g>
    <g id="xtick_7">
     <g id="line2d_13">
      <g>
       <use xlink:href="#ma19d244673" x="315.926472" y="224.897849" style="stroke: #000000"/>
      </g>
     </g>
     <g id="line2d_14">
      <g>
       <use xlink:href="#me8ed5f600c" x="315.926472" y="22.318125" style="stroke: #000000"/>
      </g>
     </g>
     <g id="text_7">
      <!-- 10 -->
      <g transform="translate(308.927722 236.756131) scale(0.11 -0.11)">
       <use xlink:href="#DejaVuSans-31"/>
       <use xlink:href="#DejaVuSans-30" transform="translate(63.623047 0)"/>
      </g>
     </g>
    </g>
    <g id="xtick_8">
     <g id="line2d_15">
      <g>
       <use xlink:href="#ma19d244673" x="357.158649" y="224.897849" style="stroke: #000000"/>
      </g>
     </g>
     <g id="line2d_16">
      <g>
       <use xlink:href="#me8ed5f600c" x="357.158649" y="22.318125" style="stroke: #000000"/>
      </g>
     </g>
     <g id="text_8">
      <!-- 15 -->
      <g transform="translate(350.159899 236.756131) scale(0.11 -0.11)">
       <use xlink:href="#DejaVuSans-31"/>
       <use xlink:href="#DejaVuSans-35" transform="translate(63.623047 0)"/>
      </g>
     </g>
    </g>
    <g id="xtick_9">
     <g id="line2d_17">
      <g>
       <use xlink:href="#ma19d244673" x="398.390826" y="224.897849" style="stroke: #000000"/>
      </g>
     </g>
     <g id="line2d_18">
      <g>
       <use xlink:href="#me8ed5f600c" x="398.390826" y="22.318125" style="stroke: #000000"/>
      </g>
     </g>
     <g id="text_9">
      <!-- 20 -->
      <g transform="translate(391.392076 236.756131) scale(0.11 -0.11)">
       <use xlink:href="#DejaVuSans-32"/>
       <use xlink:href="#DejaVuSans-30" transform="translate(63.623047 0)"/>
      </g>
     </g>
    </g>
    <g id="text_10">
     <!-- Position (m) -->
     <g transform="translate(200.489689 251.402068) scale(0.11 -0.11)">
      <defs>
       <path id="DejaVuSans-50" d="M 1259 4147 
L 1259 2394 
L 2053 2394 
Q 2494 2394 2734 2622 
Q 2975 2850 2975 3272 
Q 2975 3691 2734 3919 
Q 2494 4147 2053 4147 
L 1259 4147 
z
M 628 4666 
L 2053 4666 
Q 2838 4666 3239 4311 
Q 3641 3956 3641 3272 
Q 3641 2581 3239 2228 
Q 2838 1875 2053 1875 
L 1259 1875 
L 1259 0 
L 628 0 
L 628 4666 
z
" transform="scale(0.015625)"/>
       <path id="DejaVuSans-6f" d="M 1959 3097 
Q 1497 3097 1228 2736 
Q 959 2375 959 1747 
Q 959 1119 1226 758 
Q 1494 397 1959 397 
Q 2419 397 2687 759 
Q 2956 1122 2956 1747 
Q 2956 2369 2687 2733 
Q 2419 3097 1959 3097 
z
M 1959 3584 
Q 2709 3584 3137 3096 
Q 3566 2609 3566 1747 
Q 3566 888 3137 398 
Q 2709 -91 1959 -91 
Q 1206 -91 779 398 
Q 353 888 353 1747 
Q 353 2609 779 3096 
Q 1206 3584 1959 3584 
z
" transform="scale(0.015625)"/>
       <path id="DejaVuSans-73" d="M 2834 3397 
L 2834 2853 
Q 2591 2978 2328 3040 
Q 2066 3103 1784 3103 
Q 1356 3103 1142 2972 
Q 928 2841 928 2578 
Q 928 2378 1081 2264 
Q 1234 2150 1697 2047 
L 1894 2003 
Q 2506 1872 2764 1633 
Q 3022 1394 3022 966 
Q 3022 478 2636 193 
Q 2250 -91 1575 -91 
Q 1294 -91 989 -36 
Q 684 19 347 128 
L 347 722 
Q 666 556 975 473 
Q 1284 391 1588 391 
Q 1994 391 2212 530 
Q 2431 669 2431 922 
Q 2431 1156 2273 1281 
Q 2116 1406 1581 1522 
L 1381 1569 
Q 847 1681 609 1914 
Q 372 2147 372 2553 
Q 372 3047 722 3315 
Q 1072 3584 1716 3584 
Q 2034 3584 2315 3537 
Q 2597 3491 2834 3397 
z
" transform="scale(0.015625)"/>
       <path id="DejaVuSans-69" d="M 603 3500 
L 1178 3500 
L 1178 0 
L 603 0 
L 603 3500 
z
M 603 4863 
L 1178 4863 
L 1178 4134 
L 603 4134 
L 603 4863 
z
" transform="scale(0.015625)"/>
       <path id="DejaVuSans-74" d="M 1172 4494 
L 1172 3500 
L 2356 3500 
L 2356 3053 
L 1172 3053 
L 1172 1153 
Q 1172 725 1289 603 
Q 1406 481 1766 481 
L 2356 481 
L 2356 0 
L 1766 0 
Q 1100 0 847 248 
Q 594 497 594 1153 
L 594 3053 
L 172 3053 
L 172 3500 
L 594 3500 
L 594 4494 
L 1172 4494 
z
" transform="scale(0.015625)"/>
       <path id="DejaVuSans-6e" d="M 3513 2113 
L 3513 0 
L 2938 0 
L 2938 2094 
Q 2938 2591 2744 2837 
Q 2550 3084 2163 3084 
Q 1697 3084 1428 2787 
Q 1159 2491 1159 1978 
L 1159 0 
L 581 0 
L 581 3500 
L 1159 3500 
L 1159 2956 
Q 1366 3272 1645 3428 
Q 1925 3584 2291 3584 
Q 2894 3584 3203 3211 
Q 3513 2838 3513 2113 
z
" transform="scale(0.015625)"/>
       <path id="DejaVuSans-20" transform="scale(0.015625)"/>
       <path id="DejaVuSans-28" d="M 1984 4856 
Q 1566 4138 1362 3434 
Q 1159 2731 1159 2009 
Q 1159 1288 1364 580 
Q 1569 -128 1984 -844 
L 1484 -844 
Q 1016 -109 783 600 
Q 550 1309 550 2009 
Q 550 2706 781 3412 
Q 1013 4119 1484 4856 
L 1984 4856 
z
" transform="scale(0.015625)"/>
       <path id="DejaVuSans-6d" d="M 3328 2828 
Q 3544 3216 3844 3400 
Q 4144 3584 4550 3584 
Q 5097 3584 5394 3201 
Q 5691 2819 5691 2113 
L 5691 0 
L 5113 0 
L 5113 2094 
Q 5113 2597 4934 2840 
Q 4756 3084 4391 3084 
Q 3944 3084 3684 2787 
Q 3425 2491 3425 1978 
L 3425 0 
L 2847 0 
L 2847 2094 
Q 2847 2600 2669 2842 
Q 2491 3084 2119 3084 
Q 1678 3084 1418 2786 
Q 1159 2488 1159 1978 
L 1159 0 
L 581 0 
L 581 3500 
L 1159 3500 
L 1159 2956 
Q 1356 3278 1631 3431 
Q 1906 3584 2284 3584 
Q 2666 3584 2933 3390 
Q 3200 3197 3328 2828 
z
" transform="scale(0.015625)"/>
       <path id="DejaVuSans-29" d="M 513 4856 
L 1013 4856 
Q 1481 4119 1714 3412 
Q 1947 2706 1947 2009 
Q 1947 1309 1714 600 
Q 1481 -109 1013 -844 
L 513 -844 
Q 928 -128 1133 580 
Q 1338 1288 1338 2009 
Q 1338 2731 1133 3434 
Q 928 4138 513 4856 
z
" transform="scale(0.015625)"/>
      </defs>
      <use xlink:href="#DejaVuSans-50"/>
      <use xlink:href="#DejaVuSans-6f" transform="translate(56.677734 0)"/>
      <use xlink:href="#DejaVuSans-73" transform="translate(117.859375 0)"/>
      <use xlink:href="#DejaVuSans-69" transform="translate(169.958984 0)"/>
      <use xlink:href="#DejaVuSans-74" transform="translate(197.742188 0)"/>
      <use xlink:href="#DejaVuSans-69" transform="translate(236.951172 0)"/>
      <use xlink:href="#DejaVuSans-6f" transform="translate(264.734375 0)"/>
      <use xlink:href="#DejaVuSans-6e" transform="translate(325.916016 0)"/>
      <use xlink:href="#DejaVuSans-20" transform="translate(389.294922 0)"/>
      <use xlink:href="#DejaVuSans-28" transform="translate(421.082031 0)"/>
      <use xlink:href="#DejaVuSans-6d" transform="translate(460.095703 0)"/>
      <use xlink:href="#DejaVuSans-29" transform="translate(557.507812 0)"/>
     </g>
    </g>
   </g>
   <g id="matplotlib.axis_2">
    <g id="ytick_1">
     <g id="line2d_19">
      <defs>
       <path id="m908d48aea9" d="M 0 0 
L 4 0 
" style="stroke: #000000"/>
      </defs>
      <g>
       <use xlink:href="#m908d48aea9" x="52.057031" y="204.75067" style="stroke: #000000"/>
      </g>
     </g>
     <g id="line2d_20">
      <defs>
       <path id="m788ef5f692" d="M 0 0 
L -4 0 
" style="stroke: #000000"/>
      </defs>
      <g>
       <use xlink:href="#m788ef5f692" x="414.537346" y="204.75067" style="stroke: #000000"/>
      </g>
     </g>
     <g id="text_11">
      <!-- −0.2 -->
      <g transform="translate(21.845938 208.929811) scale(0.11 -0.11)">
       <defs>
        <path id="DejaVuSans-2e" d="M 684 794 
L 1344 794 
L 1344 0 
L 684 0 
L 684 794 
z
" transform="scale(0.015625)"/>
       </defs>
       <use xlink:href="#DejaVuSans-2212"/>
       <use xlink:href="#DejaVuSans-30" transform="translate(83.789062 0)"/>
       <use xlink:href="#DejaVuSans-2e" transform="translate(147.412109 0)"/>
       <use xlink:href="#DejaVuSans-32" transform="translate(179.199219 0)"/>
      </g>
     </g>
    </g>
    <g id="ytick_2">
     <g id="line2d_21">
      <g>
       <use xlink:href="#m908d48aea9" x="52.057031" y="173.033073" style="stroke: #000000"/>
      </g>
     </g>
     <g id="line2d_22">
      <g>
       <use xlink:href="#m788ef5f692" x="414.537346" y="173.033073" style="stroke: #000000"/>
      </g>
     </g>
     <g id="text_12">
      <!-- 0.0 -->
      <g transform="translate(31.063594 177.212213) scale(0.11 -0.11)">
       <use xlink:href="#DejaVuSans-30"/>
       <use xlink:href="#DejaVuSans-2e" transform="translate(63.623047 0)"/>
       <use xlink:href="#DejaVuSans-30" transform="translate(95.410156 0)"/>
      </g>
     </g>
    </g>
    <g id="ytick_3">
     <g id="line2d_23">
      <g>
       <use xlink:href="#m908d48aea9" x="52.057031" y="141.315475" style="stroke: #000000"/>
      </g>
     </g>
     <g id="line2d_24">
      <g>
       <use xlink:href="#m788ef5f692" x="414.537346" y="141.315475" style="stroke: #000000"/>
      </g>
     </g>
     <g id="text_13">
      <!-- 0.2 -->
      <g transform="translate(31.063594 145.494616) scale(0.11 -0.11)">
       <use xlink:href="#DejaVuSans-30"/>
       <use xlink:href="#DejaVuSans-2e" transform="translate(63.623047 0)"/>
       <use xlink:href="#DejaVuSans-32" transform="translate(95.410156 0)"/>
      </g>
     </g>
    </g>
    <g id="ytick_4">
     <g id="line2d_25">
      <g>
       <use xlink:href="#m908d48aea9" x="52.057031" y="109.597877" style="stroke: #000000"/>
      </g>
     </g>
     <g id="line2d_26">
      <g>
       <use xlink:href="#m788ef5f692" x="414.537346" y="109.597877" style="stroke: #000000"/>
      </g>
     </g>
     <g id="text_14">
      <!-- 0.4 -->
      <g transform="translate(31.063594 113.777018) scale(0.11 -0.11)">
       <defs>
        <path id="DejaVuSans-34" d="M 2419 4116 
L 825 1625 
L 2419 1625 
L 2419 4116 
z
M 2253 4666 
L 3047 4666 
L 3047 1625 
L 3713 1625 
L 3713 1100 
L 3047 1100 
L 3047 0 
L 2419 0 
L 2419 1100 
L 313 1100 
L 313 1709 
L 2253 4666 
z
" transform="scale(0.015625)"/>
       </defs>
       <use xlink:href="#DejaVuSans-30"/>
       <use xlink:href="#DejaVuSans-2e" transform="translate(63.623047 0)"/>
       <use xlink:href="#DejaVuSans-34" transform="translate(95.410156 0)"/>
      </g>
     </g>
    </g>
    <g id="ytick_5">
     <g id="line2d_27">
      <g>
       <use xlink:href="#m908d48aea9" x="52.057031" y="77.88028" style="stroke: #000000"/>
      </g>
     </g>
     <g id="line2d_28">
      <g>
       <use xlink:href="#m788ef5f692" x="414.537346" y="77.88028" style="stroke: #000000"/>
      </g>
     </g>
     <g id="text_15">
      <!-- 0.6 -->
      <g transform="translate(31.063594 82.05942) scale(0.11 -0.11)">
       <defs>
        <path id="DejaVuSans-36" d="M 2113 2584 
Q 1688 2584 1439 2293 
Q 1191 2003 1191 1497 
Q 1191 994 1439 701 
Q 1688 409 2113 409 
Q 2538 409 2786 701 
Q 3034 994 3034 1497 
Q 3034 2003 2786 2293 
Q 2538 2584 2113 2584 
z
M 3366 4563 
L 3366 3988 
Q 3128 4100 2886 4159 
Q 2644 4219 2406 4219 
Q 1781 4219 1451 3797 
Q 1122 3375 1075 2522 
Q 1259 2794 1537 2939 
Q 1816 3084 2150 3084 
Q 2853 3084 3261 2657 
Q 3669 2231 3669 1497 
Q 3669 778 3244 343 
Q 2819 -91 2113 -91 
Q 1303 -91 875 529 
Q 447 1150 447 2328 
Q 447 3434 972 4092 
Q 1497 4750 2381 4750 
Q 2619 4750 2861 4703 
Q 3103 4656 3366 4563 
z
" transform="scale(0.015625)"/>
       </defs>
       <use xlink:href="#DejaVuSans-30"/>
       <use xlink:href="#DejaVuSans-2e" transform="translate(63.623047 0)"/>
       <use xlink:href="#DejaVuSans-36" transform="translate(95.410156 0)"/>
      </g>
     </g>
    </g>
    <g id="ytick_6">
     <g id="line2d_29">
      <g>
       <use xlink:href="#m908d48aea9" x="52.057031" y="46.162682" style="stroke: #000000"/>
      </g>
     </g>
     <g id="line2d_30">
      <g>
       <use xlink:href="#m788ef5f692" x="414.537346" y="46.162682" style="stroke: #000000"/>
      </g>
     </g>
     <g id="text_16">
      <!-- 0.8 -->
      <g transform="translate(31.063594 50.341823) scale(0.11 -0.11)">
       <defs>
        <path id="DejaVuSans-38" d="M 2034 2216 
Q 1584 2216 1326 1975 
Q 1069 1734 1069 1313 
Q 1069 891 1326 650 
Q 1584 409 2034 409 
Q 2484 409 2743 651 
Q 3003 894 3003 1313 
Q 3003 1734 2745 1975 
Q 2488 2216 2034 2216 
z
M 1403 2484 
Q 997 2584 770 2862 
Q 544 3141 544 3541 
Q 544 4100 942 4425 
Q 1341 4750 2034 4750 
Q 2731 4750 3128 4425 
Q 3525 4100 3525 3541 
Q 3525 3141 3298 2862 
Q 3072 2584 2669 2484 
Q 3125 2378 3379 2068 
Q 3634 1759 3634 1313 
Q 3634 634 3220 271 
Q 2806 -91 2034 -91 
Q 1263 -91 848 271 
Q 434 634 434 1313 
Q 434 1759 690 2068 
Q 947 2378 1403 2484 
z
M 1172 3481 
Q 1172 3119 1398 2916 
Q 1625 2713 2034 2713 
Q 2441 2713 2670 2916 
Q 2900 3119 2900 3481 
Q 2900 3844 2670 4047 
Q 2441 4250 2034 4250 
Q 1625 4250 1398 4047 
Q 1172 3844 1172 3481 
z
" transform="scale(0.015625)"/>
       </defs>
       <use xlink:href="#DejaVuSans-30"/>
       <use xlink:href="#DejaVuSans-2e" transform="translate(63.623047 0)"/>
       <use xlink:href="#DejaVuSans-38" transform="translate(95.410156 0)"/>
      </g>
     </g>
    </g>
    <g id="text_17">
     <!-- Magnetic Field (T) -->
     <g transform="translate(15.558281 172.63705) rotate(-90) scale(0.11 -0.11)">
      <defs>
       <path id="DejaVuSans-4d" d="M 628 4666 
L 1569 4666 
L 2759 1491 
L 3956 4666 
L 4897 4666 
L 4897 0 
L 4281 0 
L 4281 4097 
L 3078 897 
L 2444 897 
L 1241 4097 
L 1241 0 
L 628 0 
L 628 4666 
z
" transform="scale(0.015625)"/>
       <path id="DejaVuSans-61" d="M 2194 1759 
Q 1497 1759 1228 1600 
Q 959 1441 959 1056 
Q 959 750 1161 570 
Q 1363 391 1709 391 
Q 2188 391 2477 730 
Q 2766 1069 2766 1631 
L 2766 1759 
L 2194 1759 
z
M 3341 1997 
L 3341 0 
L 2766 0 
L 2766 531 
Q 2569 213 2275 61 
Q 1981 -91 1556 -91 
Q 1019 -91 701 211 
Q 384 513 384 1019 
Q 384 1609 779 1909 
Q 1175 2209 1959 2209 
L 2766 2209 
L 2766 2266 
Q 2766 2663 2505 2880 
Q 2244 3097 1772 3097 
Q 1472 3097 1187 3025 
Q 903 2953 641 2809 
L 641 3341 
Q 956 3463 1253 3523 
Q 1550 3584 1831 3584 
Q 2591 3584 2966 3190 
Q 3341 2797 3341 1997 
z
" transform="scale(0.015625)"/>
       <path id="DejaVuSans-67" d="M 2906 1791 
Q 2906 2416 2648 2759 
Q 2391 3103 1925 3103 
Q 1463 3103 1205 2759 
Q 947 2416 947 1791 
Q 947 1169 1205 825 
Q 1463 481 1925 481 
Q 2391 481 2648 825 
Q 2906 1169 2906 1791 
z
M 3481 434 
Q 3481 -459 3084 -895 
Q 2688 -1331 1869 -1331 
Q 1566 -1331 1297 -1286 
Q 1028 -1241 775 -1147 
L 775 -588 
Q 1028 -725 1275 -790 
Q 1522 -856 1778 -856 
Q 2344 -856 2625 -561 
Q 2906 -266 2906 331 
L 2906 616 
Q 2728 306 2450 153 
Q 2172 0 1784 0 
Q 1141 0 747 490 
Q 353 981 353 1791 
Q 353 2603 747 3093 
Q 1141 3584 1784 3584 
Q 2172 3584 2450 3431 
Q 2728 3278 2906 2969 
L 2906 3500 
L 3481 3500 
L 3481 434 
z
" transform="scale(0.015625)"/>
       <path id="DejaVuSans-65" d="M 3597 1894 
L 3597 1613 
L 953 1613 
Q 991 1019 1311 708 
Q 1631 397 2203 397 
Q 2534 397 2845 478 
Q 3156 559 3463 722 
L 3463 178 
Q 3153 47 2828 -22 
Q 2503 -91 2169 -91 
Q 1331 -91 842 396 
Q 353 884 353 1716 
Q 353 2575 817 3079 
Q 1281 3584 2069 3584 
Q 2775 3584 3186 3129 
Q 3597 2675 3597 1894 
z
M 3022 2063 
Q 3016 2534 2758 2815 
Q 2500 3097 2075 3097 
Q 1594 3097 1305 2825 
Q 1016 2553 972 2059 
L 3022 2063 
z
" transform="scale(0.015625)"/>
       <path id="DejaVuSans-63" d="M 3122 3366 
L 3122 2828 
Q 2878 2963 2633 3030 
Q 2388 3097 2138 3097 
Q 1578 3097 1268 2742 
Q 959 2388 959 1747 
Q 959 1106 1268 751 
Q 1578 397 2138 397 
Q 2388 397 2633 464 
Q 2878 531 3122 666 
L 3122 134 
Q 2881 22 2623 -34 
Q 2366 -91 2075 -91 
Q 1284 -91 818 406 
Q 353 903 353 1747 
Q 353 2603 823 3093 
Q 1294 3584 2113 3584 
Q 2378 3584 2631 3529 
Q 2884 3475 3122 3366 
z
" transform="scale(0.015625)"/>
       <path id="DejaVuSans-46" d="M 628 4666 
L 3309 4666 
L 3309 4134 
L 1259 4134 
L 1259 2759 
L 3109 2759 
L 3109 2228 
L 1259 2228 
L 1259 0 
L 628 0 
L 628 4666 
z
" transform="scale(0.015625)"/>
       <path id="DejaVuSans-6c" d="M 603 4863 
L 1178 4863 
L 1178 0 
L 603 0 
L 603 4863 
z
" transform="scale(0.015625)"/>
       <path id="DejaVuSans-64" d="M 2906 2969 
L 2906 4863 
L 3481 4863 
L 3481 0 
L 2906 0 
L 2906 525 
Q 2725 213 2448 61 
Q 2172 -91 1784 -91 
Q 1150 -91 751 415 
Q 353 922 353 1747 
Q 353 2572 751 3078 
Q 1150 3584 1784 3584 
Q 2172 3584 2448 3432 
Q 2725 3281 2906 2969 
z
M 947 1747 
Q 947 1113 1208 752 
Q 1469 391 1925 391 
Q 2381 391 2643 752 
Q 2906 1113 2906 1747 
Q 2906 2381 2643 2742 
Q 2381 3103 1925 3103 
Q 1469 3103 1208 2742 
Q 947 2381 947 1747 
z
" transform="scale(0.015625)"/>
       <path id="DejaVuSans-54" d="M -19 4666 
L 3928 4666 
L 3928 4134 
L 2272 4134 
L 2272 0 
L 1638 0 
L 1638 4134 
L -19 4134 
L -19 4666 
z
" transform="scale(0.015625)"/>
      </defs>
      <use xlink:href="#DejaVuSans-4d"/>
      <use xlink:href="#DejaVuSans-61" transform="translate(86.279297 0)"/>
      <use xlink:href="#DejaVuSans-67" transform="translate(147.558594 0)"/>
      <use xlink:href="#DejaVuSans-6e" transform="translate(211.035156 0)"/>
      <use xlink:href="#DejaVuSans-65" transform="translate(274.414062 0)"/>
      <use xlink:href="#DejaVuSans-74" transform="translate(335.9375 0)"/>
      <use xlink:href="#DejaVuSans-69" transform="translate(375.146484 0)"/>
      <use xlink:href="#DejaVuSans-63" transform="translate(402.929688 0)"/>
      <use xlink:href="#DejaVuSans-20" transform="translate(457.910156 0)"/>
      <use xlink:href="#DejaVuSans-46" transform="translate(489.697266 0)"/>
      <use xlink:href="#DejaVuSans-69" transform="translate(539.966797 0)"/>
      <use xlink:href="#DejaVuSans-65" transform="translate(567.75 0)"/>
      <use xlink:href="#DejaVuSans-6c" transform="translate(629.273438 0)"/>
      <use xlink:href="#DejaVuSans-64" transform="translate(657.056641 0)"/>
      <use xlink:href="#DejaVuSans-20" transform="translate(720.533203 0)"/>
      <use xlink:href="#DejaVuSans-28" transform="translate(752.320312 0)"/>
      <use xlink:href="#DejaVuSans-54" transform="translate(791.333984 0)"/>
      <use xlink:href="#DejaVuSans-29" transform="translate(852.417969 0)"/>
     </g>
    </g>
   </g>
   <g id="line2d_31">
    <path d="M 68.533409 173.029598 
L 76.449987 172.968174 
L 86.675567 172.69604 
L 96.241432 172.210508 
L 104.15801 171.588506 
L 111.085016 170.82687 
L 116.692592 170.007128 
L 121.970311 169.009532 
L 126.258457 167.984695 
L 130.216746 166.811892 
L 133.51532 165.617106 
L 136.484037 164.316453 
L 139.122896 162.925357 
L 141.761756 161.262263 
L 144.070758 159.519014 
L 146.049902 157.744961 
L 148.029047 155.646246 
L 149.678334 153.58967 
L 151.327621 151.210288 
L 152.976908 148.415502 
L 154.626195 145.097942 
L 155.945625 142.008461 
L 157.594912 137.489142 
L 158.914341 133.294285 
L 160.233771 128.526503 
L 161.883058 121.715759 
L 163.862203 112.504331 
L 166.830919 98.438891 
L 168.150349 93.074104 
L 169.469779 88.670738 
L 170.459351 86.070426 
L 171.448923 84.033023 
L 172.438495 82.477527 
L 173.428068 81.338977 
L 174.747497 80.283424 
L 176.396784 79.516506 
L 177.716214 79.148484 
L 179.695359 78.8513 
L 183.32379 78.653778 
L 188.601509 78.597604 
L 214.00053 78.610371 
L 280.961585 78.609864 
L 286.239304 78.770162 
L 288.548306 79.031799 
L 290.197593 79.409209 
L 291.84688 80.105845 
L 293.16631 81.015579 
L 294.485739 82.465287 
L 295.145454 83.438326 
L 296.135027 85.294108 
L 297.124599 87.709829 
L 298.114171 90.718891 
L 299.433601 95.620712 
L 301.082888 102.943567 
L 305.700892 124.52873 
L 307.350179 130.988501 
L 308.999466 136.50847 
L 310.648753 141.178745 
L 312.29804 145.107314 
L 313.947327 148.407467 
L 315.596614 151.209144 
L 317.245901 153.594612 
L 318.895188 155.636701 
L 320.544475 157.41687 
L 323.183335 159.786466 
L 325.492337 161.493867 
L 327.801339 162.932111 
L 330.440198 164.31749 
L 333.408915 165.619329 
L 336.707489 166.817657 
L 340.33592 167.899508 
L 344.294209 168.86882 
L 349.242071 169.839799 
L 355.179504 170.74302 
L 362.10651 171.528602 
L 370.682803 172.213318 
L 379.588953 172.672675 
L 389.814533 172.959392 
L 398.060968 173.030366 
L 398.060968 173.030366 
" clip-path="url(#pfb50a9993b)" style="fill: none; stroke: #8000ff; stroke-width: 1.5; stroke-linecap: square"/>
   </g>
   <g id="line2d_32">
    <path d="M 68.533409 172.867687 
L 74.8007 173.006502 
L 85.02628 173.065286 
L 95.581717 172.913849 
L 104.817725 172.593849 
L 113.06416 172.125158 
L 121.310596 171.442065 
L 127.577887 170.734102 
L 134.175035 169.759486 
L 141.102041 168.442955 
L 146.709617 167.100578 
L 157.265054 164.105916 
L 159.903914 163.192128 
L 161.883058 162.248743 
L 163.202488 161.262135 
L 163.862203 160.572543 
L 164.851775 159.155562 
L 165.841347 157.13215 
L 166.830919 154.316841 
L 167.820492 150.692596 
L 168.810064 146.386543 
L 170.129493 139.527549 
L 175.407212 110.385969 
L 177.056499 103.336006 
L 178.375929 98.643971 
L 179.695359 94.755424 
L 181.014788 91.566901 
L 182.334218 88.973981 
L 183.653648 86.872574 
L 184.973077 85.187868 
L 186.292507 83.835712 
L 187.611937 82.757577 
L 189.261224 81.710082 
L 190.910511 80.924741 
L 192.889655 80.235214 
L 195.198657 79.681302 
L 197.837516 79.280518 
L 201.465948 78.952805 
L 206.413809 78.746027 
L 215.979674 78.631366 
L 287.228876 78.425949 
L 290.197593 78.085967 
L 291.517023 77.774411 
L 293.16631 77.120273 
L 293.826025 76.770838 
L 294.485739 76.33363 
L 295.805169 75.076231 
L 296.794741 73.870389 
L 298.444028 71.335425 
L 300.093316 68.736702 
L 301.082888 67.564274 
L 301.742603 67.104944 
L 302.402317 66.995401 
L 303.062032 67.250306 
L 303.721747 67.91288 
L 304.381462 68.958738 
L 305.041177 70.392178 
L 306.030749 73.232312 
L 307.350179 78.007045 
L 308.999466 85.039855 
L 315.926472 116.338341 
L 317.905616 123.838799 
L 319.884761 130.38785 
L 321.534048 135.171235 
L 323.183335 139.417465 
L 324.832622 143.131122 
L 326.811766 146.991185 
L 328.461053 149.777061 
L 330.11034 152.212852 
L 332.089485 154.749324 
L 334.068629 156.912326 
L 336.047774 158.778405 
L 338.356776 160.638932 
L 340.665778 162.210382 
L 343.304637 163.721428 
L 345.943496 164.99515 
L 348.912213 166.201427 
L 352.210787 167.313357 
L 355.839219 168.321841 
L 359.797508 169.226272 
L 364.745369 170.131094 
L 370.682803 170.971097 
L 377.279951 171.674478 
L 385.526386 172.298273 
L 394.762394 172.749281 
L 398.060968 172.857908 
L 398.060968 172.857908 
" clip-path="url(#pfb50a9993b)" style="fill: none; stroke: #2adddd; stroke-width: 1.5; stroke-linecap: square"/>
   </g>
   <g id="line2d_33">
    <path d="M 68.533409 172.210081 
L 74.140985 172.565475 
L 83.047136 172.947786 
L 93.93243 173.181914 
L 105.807297 173.202614 
L 119.661309 172.962982 
L 142.42147 172.501409 
L 146.379759 172.744376 
L 149.678334 173.258202 
L 152.317193 173.969712 
L 153.636623 174.499743 
L 155.945625 175.761618 
L 157.265054 176.749686 
L 158.914341 178.206687 
L 160.893486 180.356966 
L 164.19206 184.127919 
L 164.851775 184.636653 
L 165.51149 184.892817 
L 166.171204 184.861743 
L 166.501062 184.721939 
L 167.160777 184.095264 
L 167.820492 183.076106 
L 168.480206 181.763328 
L 169.469779 178.803255 
L 170.459351 174.975203 
L 171.778781 168.745813 
L 174.087782 156.368005 
L 177.056499 140.589543 
L 179.035644 131.200983 
L 181.014788 123.009621 
L 182.664075 117.075644 
L 184.313362 111.891599 
L 185.962649 107.380409 
L 187.611937 103.469908 
L 189.261224 100.08185 
L 190.910511 97.152698 
L 192.559798 94.619208 
L 194.209085 92.430614 
L 196.188229 90.198835 
L 198.167374 88.324383 
L 200.146518 86.74783 
L 202.125663 85.431788 
L 204.434665 84.160769 
L 207.073524 82.998647 
L 209.712383 82.072994 
L 213.010958 81.189452 
L 216.309532 80.533504 
L 220.267821 79.959529 
L 225.545539 79.454013 
L 231.153116 79.124816 
L 238.409979 78.884933 
L 248.305701 78.727218 
L 279.312298 78.606036 
L 285.909447 78.466958 
L 288.548306 78.216811 
L 290.52745 77.795122 
L 292.176738 77.103336 
L 293.496167 76.225948 
L 294.485739 75.249696 
L 295.475312 73.90128 
L 296.464884 72.085428 
L 297.124599 70.659191 
L 298.444028 67.114071 
L 300.423173 60.734136 
L 302.07246 55.620587 
L 303.062032 53.229981 
L 303.721747 52.037119 
L 304.381462 51.190996 
L 305.041177 50.727026 
L 305.700892 50.654245 
L 306.360606 50.977594 
L 307.020321 51.618285 
L 307.680036 52.603105 
L 308.669608 54.563804 
L 309.989038 58.156493 
L 311.308468 62.381991 
L 312.627897 67.200145 
L 315.596614 78.896496 
L 319.554903 94.652235 
L 322.52362 105.525376 
L 324.832622 113.2089 
L 327.141624 120.170842 
L 329.450626 126.412837 
L 331.759628 131.961819 
L 334.068629 136.867673 
L 336.377631 141.201333 
L 338.686633 145.020279 
L 340.995635 148.364661 
L 343.304637 151.301269 
L 345.613639 153.877932 
L 347.922641 156.139526 
L 350.231643 158.126914 
L 352.870502 160.10316 
L 355.509362 161.808379 
L 358.478078 163.458547 
L 361.776652 165.005615 
L 365.075227 166.303248 
L 368.703658 167.496996 
L 372.991805 168.653369 
L 377.609808 169.65302 
L 382.887527 170.554496 
L 389.154818 171.371091 
L 395.422109 171.980467 
L 398.060968 172.185858 
L 398.060968 172.185858 
" clip-path="url(#pfb50a9993b)" style="fill: none; stroke: #d4dd80; stroke-width: 1.5; stroke-linecap: square"/>
   </g>
   <g id="line2d_34">
    <path d="M 68.533409 166.145849 
L 72.491698 167.277193 
L 78.099274 168.632841 
L 83.70685 169.750803 
L 89.974141 170.778547 
L 97.560862 171.771136 
L 107.456584 172.792844 
L 132.525748 175.209097 
L 136.813894 175.90944 
L 140.112469 176.660703 
L 143.081185 177.536362 
L 145.390187 178.434875 
L 147.699189 179.584869 
L 149.678334 180.86477 
L 151.657478 182.44957 
L 152.976908 183.762686 
L 154.626195 185.73574 
L 155.945625 187.632615 
L 157.265054 189.903208 
L 158.914341 193.23394 
L 160.563628 197.226597 
L 162.212915 201.865849 
L 165.841347 212.301399 
L 166.830919 214.212763 
L 167.490634 215.088829 
L 168.480206 215.68968 
L 169.139921 215.483589 
L 169.799636 214.837941 
L 170.459351 213.805286 
L 171.448923 211.499105 
L 172.438495 208.467348 
L 173.757925 203.695553 
L 176.396784 192.664588 
L 180.355073 175.673935 
L 182.993933 165.228058 
L 185.632792 155.746004 
L 187.941794 148.252351 
L 190.250796 141.458371 
L 192.559798 135.316889 
L 194.8688 129.770408 
L 197.177802 124.769875 
L 199.486804 120.250897 
L 201.795805 116.176819 
L 204.434665 112.005613 
L 207.073524 108.300934 
L 209.712383 105.00008 
L 212.351243 102.069946 
L 214.990102 99.466013 
L 217.958819 96.881272 
L 220.927536 94.615577 
L 223.896252 92.631129 
L 226.864969 90.89298 
L 230.163543 89.214631 
L 233.791975 87.634106 
L 237.750264 86.177555 
L 242.03841 84.859518 
L 246.656414 83.698782 
L 252.923705 82.461518 
L 258.201424 81.661223 
L 265.128429 80.85632 
L 273.045007 80.188711 
L 286.899019 79.21835 
L 288.878163 78.875503 
L 290.52745 78.383891 
L 291.84688 77.715459 
L 292.836452 77.025881 
L 294.155882 75.677648 
L 295.145454 74.193792 
L 296.135027 72.182252 
L 297.124599 69.595495 
L 298.444028 65.120972 
L 299.763458 59.595804 
L 304.051605 40.621117 
L 305.041177 37.370311 
L 306.030749 34.867431 
L 307.020321 33.066809 
L 307.680036 32.272277 
L 308.339751 31.758697 
L 308.669608 31.575909 
L 309.329323 31.526294 
L 309.989038 31.723108 
L 310.648753 32.10819 
L 311.638325 33.051934 
L 312.627897 34.521665 
L 313.947327 36.910447 
L 315.266757 39.826068 
L 316.916044 43.995 
L 319.554903 51.464647 
L 323.183335 62.430417 
L 328.790911 79.301266 
L 332.089485 88.616131 
L 335.388059 97.283235 
L 338.356776 104.498443 
L 341.325493 111.134723 
L 344.294209 117.224267 
L 347.262926 122.77775 
L 350.231643 127.835774 
L 353.20036 132.425518 
L 356.169076 136.585109 
L 359.137793 140.34914 
L 361.776652 143.391235 
L 364.745369 146.497408 
L 367.714086 149.302779 
L 370.682803 151.828893 
L 373.981377 154.347137 
L 377.279951 156.591044 
L 380.908383 158.776591 
L 384.536814 160.698402 
L 388.495103 162.534657 
L 392.78325 164.253921 
L 397.071396 165.733688 
L 398.060968 166.044406 
L 398.060968 166.044406 
" clip-path="url(#pfb50a9993b)" style="fill: none; stroke: #ff0000; stroke-width: 1.5; stroke-linecap: square"/>
   </g>
   <g id="patch_3">
    <path d="M 52.057031 224.897849 
L 52.057031 22.318125 
" style="fill: none; stroke: #000000; stroke-width: 0.8; stroke-linejoin: miter; stroke-linecap: square"/>
   </g>
   <g id="patch_4">
    <path d="M 414.537346 224.897849 
L 414.537346 22.318125 
" style="fill: none; stroke: #000000; stroke-width: 0.8; stroke-linejoin: miter; stroke-linecap: square"/>
   </g>
   <g id="patch_5">
    <path d="M 52.057031 224.897849 
L 414.537346 224.897849 
" style="fill: none; stroke: #000000; stroke-width: 0.8; stroke-linejoin: miter; stroke-linecap: square"/>
   </g>
   <g id="patch_6">
    <path d="M 52.057031 22.318125 
L 414.537346 22.318125 
" style="fill: none; stroke: #000000; stroke-width: 0.8; stroke-linejoin: miter; stroke-linecap: square"/>
   </g>
   <g id="text_18">
    <!-- Magnetic Field Profile along x axis -->
    <g transform="translate(52.057031 16.318125) scale(0.12 -0.12)">
     <defs>
      <path id="DejaVuSans-72" d="M 2631 2963 
Q 2534 3019 2420 3045 
Q 2306 3072 2169 3072 
Q 1681 3072 1420 2755 
Q 1159 2438 1159 1844 
L 1159 0 
L 581 0 
L 581 3500 
L 1159 3500 
L 1159 2956 
Q 1341 3275 1631 3429 
Q 1922 3584 2338 3584 
Q 2397 3584 2469 3576 
Q 2541 3569 2628 3553 
L 2631 2963 
z
" transform="scale(0.015625)"/>
      <path id="DejaVuSans-66" d="M 2375 4863 
L 2375 4384 
L 1825 4384 
Q 1516 4384 1395 4259 
Q 1275 4134 1275 3809 
L 1275 3500 
L 2222 3500 
L 2222 3053 
L 1275 3053 
L 1275 0 
L 697 0 
L 697 3053 
L 147 3053 
L 147 3500 
L 697 3500 
L 697 3744 
Q 697 4328 969 4595 
Q 1241 4863 1831 4863 
L 2375 4863 
z
" transform="scale(0.015625)"/>
      <path id="DejaVuSans-78" d="M 3513 3500 
L 2247 1797 
L 3578 0 
L 2900 0 
L 1881 1375 
L 863 0 
L 184 0 
L 1544 1831 
L 300 3500 
L 978 3500 
L 1906 2253 
L 2834 3500 
L 3513 3500 
z
" transform="scale(0.015625)"/>
     </defs>
     <use xlink:href="#DejaVuSans-4d"/>
     <use xlink:href="#DejaVuSans-61" transform="translate(86.279297 0)"/>
     <use xlink:href="#DejaVuSans-67" transform="translate(147.558594 0)"/>
     <use xlink:href="#DejaVuSans-6e" transform="translate(211.035156 0)"/>
     <use xlink:href="#DejaVuSans-65" transform="translate(274.414062 0)"/>
     <use xlink:href="#DejaVuSans-74" transform="translate(335.9375 0)"/>
     <use xlink:href="#DejaVuSans-69" transform="translate(375.146484 0)"/>
     <use xlink:href="#DejaVuSans-63" transform="translate(402.929688 0)"/>
     <use xlink:href="#DejaVuSans-20" transform="translate(457.910156 0)"/>
     <use xlink:href="#DejaVuSans-46" transform="translate(489.697266 0)"/>
     <use xlink:href="#DejaVuSans-69" transform="translate(539.966797 0)"/>
     <use xlink:href="#DejaVuSans-65" transform="translate(567.75 0)"/>
     <use xlink:href="#DejaVuSans-6c" transform="translate(629.273438 0)"/>
     <use xlink:href="#DejaVuSans-64" transform="translate(657.056641 0)"/>
     <use xlink:href="#DejaVuSans-20" transform="translate(720.533203 0)"/>
     <use xlink:href="#DejaVuSans-50" transform="translate(752.320312 0)"/>
     <use xlink:href="#DejaVuSans-72" transform="translate(810.873047 0)"/>
     <use xlink:href="#DejaVuSans-6f" transform="translate(849.736328 0)"/>
     <use xlink:href="#DejaVuSans-66" transform="translate(910.917969 0)"/>
     <use xlink:href="#DejaVuSans-69" transform="translate(946.123047 0)"/>
     <use xlink:href="#DejaVuSans-6c" transform="translate(973.90625 0)"/>
     <use xlink:href="#DejaVuSans-65" transform="translate(1001.689453 0)"/>
     <use xlink:href="#DejaVuSans-20" transform="translate(1063.212891 0)"/>
     <use xlink:href="#DejaVuSans-61" transform="translate(1095 0)"/>
     <use xlink:href="#DejaVuSans-6c" transform="translate(1156.279297 0)"/>
     <use xlink:href="#DejaVuSans-6f" transform="translate(1184.0625 0)"/>
     <use xlink:href="#DejaVuSans-6e" transform="translate(1245.244141 0)"/>
     <use xlink:href="#DejaVuSans-67" transform="translate(1308.623047 0)"/>
     <use xlink:href="#DejaVuSans-20" transform="translate(1372.099609 0)"/>
     <use xlink:href="#DejaVuSans-78" transform="translate(1403.886719 0)"/>
     <use xlink:href="#DejaVuSans-20" transform="translate(1463.066406 0)"/>
     <use xlink:href="#DejaVuSans-61" transform="translate(1494.853516 0)"/>
     <use xlink:href="#DejaVuSans-78" transform="translate(1556.132812 0)"/>
     <use xlink:href="#DejaVuSans-69" transform="translate(1615.3125 0)"/>
     <use xlink:href="#DejaVuSans-73" transform="translate(1643.095703 0)"/>
    </g>
   </g>
   <g id="legend_1">
    <g id="patch_7">
     <path d="M 421.537346 154.464237 
L 508.420159 154.464237 
Q 510.420159 154.464237 510.420159 152.464237 
L 510.420159 94.751737 
Q 510.420159 92.751737 508.420159 92.751737 
L 421.537346 92.751737 
Q 419.537346 92.751737 419.537346 94.751737 
L 419.537346 152.464237 
Q 419.537346 154.464237 421.537346 154.464237 
z
" style="fill: #ffffff; opacity: 0.8; stroke: #cccccc; stroke-linejoin: miter"/>
    </g>
    <g id="line2d_35">
     <path d="M 423.537346 100.850175 
L 433.537346 100.850175 
L 443.537346 100.850175 
" style="fill: none; stroke: #8000ff; stroke-width: 1.5; stroke-linecap: square"/>
    </g>
    <g id="text_19">
     <!-- v=0 m/s -->
     <g transform="translate(451.537346 104.350175) scale(0.1 -0.1)">
      <defs>
       <path id="DejaVuSans-76" d="M 191 3500 
L 800 3500 
L 1894 563 
L 2988 3500 
L 3597 3500 
L 2284 0 
L 1503 0 
L 191 3500 
z
" transform="scale(0.015625)"/>
       <path id="DejaVuSans-3d" d="M 678 2906 
L 4684 2906 
L 4684 2381 
L 678 2381 
L 678 2906 
z
M 678 1631 
L 4684 1631 
L 4684 1100 
L 678 1100 
L 678 1631 
z
" transform="scale(0.015625)"/>
       <path id="DejaVuSans-2f" d="M 1625 4666 
L 2156 4666 
L 531 -594 
L 0 -594 
L 1625 4666 
z
" transform="scale(0.015625)"/>
      </defs>
      <use xlink:href="#DejaVuSans-76"/>
      <use xlink:href="#DejaVuSans-3d" transform="translate(59.179688 0)"/>
      <use xlink:href="#DejaVuSans-30" transform="translate(142.96875 0)"/>
      <use xlink:href="#DejaVuSans-20" transform="translate(206.591797 0)"/>
      <use xlink:href="#DejaVuSans-6d" transform="translate(238.378906 0)"/>
      <use xlink:href="#DejaVuSans-2f" transform="translate(335.791016 0)"/>
      <use xlink:href="#DejaVuSans-73" transform="translate(369.482422 0)"/>
     </g>
    </g>
    <g id="line2d_36">
     <path d="M 423.537346 115.5283 
L 433.537346 115.5283 
L 443.537346 115.5283 
" style="fill: none; stroke: #2adddd; stroke-width: 1.5; stroke-linecap: square"/>
    </g>
    <g id="text_20">
     <!-- v=50 m/s -->
     <g transform="translate(451.537346 119.0283) scale(0.1 -0.1)">
      <use xlink:href="#DejaVuSans-76"/>
      <use xlink:href="#DejaVuSans-3d" transform="translate(59.179688 0)"/>
      <use xlink:href="#DejaVuSans-35" transform="translate(142.96875 0)"/>
      <use xlink:href="#DejaVuSans-30" transform="translate(206.591797 0)"/>
      <use xlink:href="#DejaVuSans-20" transform="translate(270.214844 0)"/>
      <use xlink:href="#DejaVuSans-6d" transform="translate(302.001953 0)"/>
      <use xlink:href="#DejaVuSans-2f" transform="translate(399.414062 0)"/>
      <use xlink:href="#DejaVuSans-73" transform="translate(433.105469 0)"/>
     </g>
    </g>
    <g id="line2d_37">
     <path d="M 423.537346 130.206425 
L 433.537346 130.206425 
L 443.537346 130.206425 
" style="fill: none; stroke: #d4dd80; stroke-width: 1.5; stroke-linecap: square"/>
    </g>
    <g id="text_21">
     <!-- v=100 m/s -->
     <g transform="translate(451.537346 133.706425) scale(0.1 -0.1)">
      <use xlink:href="#DejaVuSans-76"/>
      <use xlink:href="#DejaVuSans-3d" transform="translate(59.179688 0)"/>
      <use xlink:href="#DejaVuSans-31" transform="translate(142.96875 0)"/>
      <use xlink:href="#DejaVuSans-30" transform="translate(206.591797 0)"/>
      <use xlink:href="#DejaVuSans-30" transform="translate(270.214844 0)"/>
      <use xlink:href="#DejaVuSans-20" transform="translate(333.837891 0)"/>
      <use xlink:href="#DejaVuSans-6d" transform="translate(365.625 0)"/>
      <use xlink:href="#DejaVuSans-2f" transform="translate(463.037109 0)"/>
      <use xlink:href="#DejaVuSans-73" transform="translate(496.728516 0)"/>
     </g>
    </g>
    <g id="line2d_38">
     <path d="M 423.537346 144.88455 
L 433.537346 144.88455 
L 443.537346 144.88455 
" style="fill: none; stroke: #ff0000; stroke-width: 1.5; stroke-linecap: square"/>
    </g>
    <g id="text_22">
     <!-- v=200 m/s -->
     <g transform="translate(451.537346 148.38455) scale(0.1 -0.1)">
      <use xlink:href="#DejaVuSans-76"/>
      <use xlink:href="#DejaVuSans-3d" transform="translate(59.179688 0)"/>
      <use xlink:href="#DejaVuSans-32" transform="translate(142.96875 0)"/>
      <use xlink:href="#DejaVuSans-30" transform="translate(206.591797 0)"/>
      <use xlink:href="#DejaVuSans-30" transform="translate(270.214844 0)"/>
      <use xlink:href="#DejaVuSans-20" transform="translate(333.837891 0)"/>
      <use xlink:href="#DejaVuSans-6d" transform="translate(365.625 0)"/>
      <use xlink:href="#DejaVuSans-2f" transform="translate(463.037109 0)"/>
      <use xlink:href="#DejaVuSans-73" transform="translate(496.728516 0)"/>
     </g>
    </g>
   </g>
  </g>
 </g>
 <defs>
  <clipPath id="pfb50a9993b">
   <rect x="52.057031" y="22.318125" width="362.480315" height="202.579724"/>
  </clipPath>
 </defs>
</svg>
