<?xml version="1.0" encoding="utf-8" standalone="no"?>
<!DOCTYPE svg PUBLIC "-//W3C//DTD SVG 1.1//EN"
  "http://www.w3.org/Graphics/SVG/1.1/DTD/svg11.dtd">
<svg xmlns:xlink="http://www.w3.org/1999/xlink" width="508.402502pt" height="260.889724pt" viewBox="0 0 508.402502 260.889724" xmlns="http://www.w3.org/2000/svg" version="1.1">
 <metadata>
  <rdf:RDF xmlns:dc="http://purl.org/dc/elements/1.1/" xmlns:cc="http://creativecommons.org/ns#" xmlns:rdf="http://www.w3.org/1999/02/22-rdf-syntax-ns#">
   <cc:Work>
    <dc:type rdf:resource="http://purl.org/dc/dcmitype/StillImage"/>
    <dc:date>2026-01-13T14:54:06.842622</dc:date>
    <dc:format>image/svg+xml</dc:format>
    <dc:creator>
     <cc:Agent>
      <dc:title>Matplotlib v3.10.7, https://matplotlib.org/</dc:title>
     </cc:Agent>
    </dc:creator>
   </cc:Work>
  </rdf:RDF>
 </metadata>
 <defs>
  <style type="text/css">*{stroke-linejoin: round; stroke-linecap: butt}</style>
 </defs>
 <g id="figure_1">
  <g id="patch_1">
   <path d="M 0 260.889724 
L 508.402502 260.889724 
L 508.402502 0 
L 0 0 
z
" style="fill: #ffffff"/>
  </g>
  <g id="axes_1">
   <g id="patch_2">
    <path d="M 42.839375 224.897849 
L 405.31969 224.897849 
L 405.31969 22.318125 
L 42.839375 22.318125 
z
" style="fill: #ffffff"/>
   </g>
   <g id="matplotlib.axis_1">
    <g id="xtick_1">
     <g id="line2d_1">
      <defs>
       <path id="ma24cc2896d" d="M 0 0 
L 0 -4 
" style="stroke: #000000"/>
      </defs>
      <g>
       <use xlink:href="#ma24cc2896d" x="59.315753" y="224.897849" style="stroke: #000000"/>
      </g>
     </g>
     <g id="line2d_2">
      <defs>
       <path id="m165fdc3fa0" d="M 0 0 
L 0 4 
" style="stroke: #000000"/>
      </defs>
      <g>
       <use xlink:href="#m165fdc3fa0" x="59.315753" y="22.318125" style="stroke: #000000"/>
      </g>
     </g>
     <g id="text_1">
      <!-- −20 -->
      <g transform="translate(47.708175 236.756131) scale(0.11 -0.11)">
       <defs>
        <path id="DejaVuSans-2212" d="M 678 2272 
L 4684 2272 
L 4684 1741 
L 678 1741 
L 678 2272 
z
" transform="scale(0.015625)"/>
        <path id="DejaVuSans-32" d="M 1228 531 
L 3431 531 
L 3431 0 
L 469 0 
L 469 531 
Q 828 903 1448 1529 
Q 2069 2156 2228 2338 
Q 2531 2678 2651 2914 
Q 2772 3150 2772 3378 
Q 2772 3750 2511 3984 
Q 2250 4219 1831 4219 
Q 1534 4219 1204 4116 
Q 875 4013 500 3803 
L 500 4441 
Q 881 4594 1212 4672 
Q 1544 4750 1819 4750 
Q 2544 4750 2975 4387 
Q 3406 4025 3406 3419 
Q 3406 3131 3298 2873 
Q 3191 2616 2906 2266 
Q 2828 2175 2409 1742 
Q 1991 1309 1228 531 
z
" transform="scale(0.015625)"/>
        <path id="DejaVuSans-30" d="M 2034 4250 
Q 1547 4250 1301 3770 
Q 1056 3291 1056 2328 
Q 1056 1369 1301 889 
Q 1547 409 2034 409 
Q 2525 409 2770 889 
Q 3016 1369 3016 2328 
Q 3016 3291 2770 3770 
Q 2525 4250 2034 4250 
z
M 2034 4750 
Q 2819 4750 3233 4129 
Q 3647 3509 3647 2328 
Q 3647 1150 3233 529 
Q 2819 -91 2034 -91 
Q 1250 -91 836 529 
Q 422 1150 422 2328 
Q 422 3509 836 4129 
Q 1250 4750 2034 4750 
z
" transform="scale(0.015625)"/>
       </defs>
       <use xlink:href="#DejaVuSans-2212"/>
       <use xlink:href="#DejaVuSans-32" transform="translate(83.789062 0)"/>
       <use xlink:href="#DejaVuSans-30" transform="translate(147.412109 0)"/>
      </g>
     </g>
    </g>
    <g id="xtick_2">
     <g id="line2d_3">
      <g>
       <use xlink:href="#ma24cc2896d" x="100.506698" y="224.897849" style="stroke: #000000"/>
      </g>
     </g>
     <g id="line2d_4">
      <g>
       <use xlink:href="#m165fdc3fa0" x="100.506698" y="22.318125" style="stroke: #000000"/>
      </g>
     </g>
     <g id="text_2">
      <!-- −15 -->
      <g transform="translate(88.89912 236.756131) scale(0.11 -0.11)">
       <defs>
        <path id="DejaVuSans-31" d="M 794 531 
L 1825 531 
L 1825 4091 
L 703 3866 
L 703 4441 
L 1819 4666 
L 2450 4666 
L 2450 531 
L 3481 531 
L 3481 0 
L 794 0 
L 794 531 
z
" transform="scale(0.015625)"/>
        <path id="DejaVuSans-35" d="M 691 4666 
L 3169 4666 
L 3169 4134 
L 1269 4134 
L 1269 2991 
Q 1406 3038 1543 3061 
Q 1681 3084 1819 3084 
Q 2600 3084 3056 2656 
Q 3513 2228 3513 1497 
Q 3513 744 3044 326 
Q 2575 -91 1722 -91 
Q 1428 -91 1123 -41 
Q 819 9 494 109 
L 494 744 
Q 775 591 1075 516 
Q 1375 441 1709 441 
Q 2250 441 2565 725 
Q 2881 1009 2881 1497 
Q 2881 1984 2565 2268 
Q 2250 2553 1709 2553 
Q 1456 2553 1204 2497 
Q 953 2441 691 2322 
L 691 4666 
z
" transform="scale(0.015625)"/>
       </defs>
       <use xlink:href="#DejaVuSans-2212"/>
       <use xlink:href="#DejaVuSans-31" transform="translate(83.789062 0)"/>
       <use xlink:href="#DejaVuSans-35" transform="translate(147.412109 0)"/>
      </g>
     </g>
    </g>
    <g id="xtick_3">
     <g id="line2d_5">
      <g>
       <use xlink:href="#ma24cc2896d" x="141.697643" y="224.897849" style="stroke: #000000"/>
      </g>
     </g>
     <g id="line2d_6">
      <g>
       <use xlink:href="#m165fdc3fa0" x="141.697643" y="22.318125" style="stroke: #000000"/>
      </g>
     </g>
     <g id="text_3">
      <!-- −10 -->
      <g transform="translate(130.090065 236.756131) scale(0.11 -0.11)">
       <use xlink:href="#DejaVuSans-2212"/>
       <use xlink:href="#DejaVuSans-31" transform="translate(83.789062 0)"/>
       <use xlink:href="#DejaVuSans-30" transform="translate(147.412109 0)"/>
      </g>
     </g>
    </g>
    <g id="xtick_4">
     <g id="line2d_7">
      <g>
       <use xlink:href="#ma24cc2896d" x="182.888588" y="224.897849" style="stroke: #000000"/>
      </g>
     </g>
     <g id="line2d_8">
      <g>
       <use xlink:href="#m165fdc3fa0" x="182.888588" y="22.318125" style="stroke: #000000"/>
      </g>
     </g>
     <g id="text_4">
      <!-- −5 -->
      <g transform="translate(174.780384 236.756131) scale(0.11 -0.11)">
       <use xlink:href="#DejaVuSans-2212"/>
       <use xlink:href="#DejaVuSans-35" transform="translate(83.789062 0)"/>
      </g>
     </g>
    </g>
    <g id="xtick_5">
     <g id="line2d_9">
      <g>
       <use xlink:href="#ma24cc2896d" x="224.079532" y="224.897849" style="stroke: #000000"/>
      </g>
     </g>
     <g id="line2d_10">
      <g>
       <use xlink:href="#m165fdc3fa0" x="224.079532" y="22.318125" style="stroke: #000000"/>
      </g>
     </g>
     <g id="text_5">
      <!-- 0 -->
      <g transform="translate(220.580157 236.756131) scale(0.11 -0.11)">
       <use xlink:href="#DejaVuSans-30"/>
      </g>
     </g>
    </g>
    <g id="xtick_6">
     <g id="line2d_11">
      <g>
       <use xlink:href="#ma24cc2896d" x="265.270477" y="224.897849" style="stroke: #000000"/>
      </g>
     </g>
     <g id="line2d_12">
      <g>
       <use xlink:href="#m165fdc3fa0" x="265.270477" y="22.318125" style="stroke: #000000"/>
      </g>
     </g>
     <g id="text_6">
      <!-- 5 -->
      <g transform="translate(261.771102 236.756131) scale(0.11 -0.11)">
       <use xlink:href="#DejaVuSans-35"/>
      </g>
     </g>
    </g>
    <g id="xtick_7">
     <g id="line2d_13">
      <g>
       <use xlink:href="#ma24cc2896d" x="306.461422" y="224.897849" style="stroke: #000000"/>
      </g>
     </g>
     <g id="line2d_14">
      <g>
       <use xlink:href="#m165fdc3fa0" x="306.461422" y="22.318125" style="stroke: #000000"/>
      </g>
     </g>
     <g id="text_7">
      <!-- 10 -->
      <g transform="translate(299.462672 236.756131) scale(0.11 -0.11)">
       <use xlink:href="#DejaVuSans-31"/>
       <use xlink:href="#DejaVuSans-30" transform="translate(63.623047 0)"/>
      </g>
     </g>
    </g>
    <g id="xtick_8">
     <g id="line2d_15">
      <g>
       <use xlink:href="#ma24cc2896d" x="347.652367" y="224.897849" style="stroke: #000000"/>
      </g>
     </g>
     <g id="line2d_16">
      <g>
       <use xlink:href="#m165fdc3fa0" x="347.652367" y="22.318125" style="stroke: #000000"/>
      </g>
     </g>
     <g id="text_8">
      <!-- 15 -->
      <g transform="translate(340.653617 236.756131) scale(0.11 -0.11)">
       <use xlink:href="#DejaVuSans-31"/>
       <use xlink:href="#DejaVuSans-35" transform="translate(63.623047 0)"/>
      </g>
     </g>
    </g>
    <g id="xtick_9">
     <g id="line2d_17">
      <g>
       <use xlink:href="#ma24cc2896d" x="388.843312" y="224.897849" style="stroke: #000000"/>
      </g>
     </g>
     <g id="line2d_18">
      <g>
       <use xlink:href="#m165fdc3fa0" x="388.843312" y="22.318125" style="stroke: #000000"/>
      </g>
     </g>
     <g id="text_9">
      <!-- 20 -->
      <g transform="translate(381.844562 236.756131) scale(0.11 -0.11)">
       <use xlink:href="#DejaVuSans-32"/>
       <use xlink:href="#DejaVuSans-30" transform="translate(63.623047 0)"/>
      </g>
     </g>
    </g>
    <g id="text_10">
     <!-- Position (m) -->
     <g transform="translate(191.272032 251.402068) scale(0.11 -0.11)">
      <defs>
       <path id="DejaVuSans-50" d="M 1259 4147 
L 1259 2394 
L 2053 2394 
Q 2494 2394 2734 2622 
Q 2975 2850 2975 3272 
Q 2975 3691 2734 3919 
Q 2494 4147 2053 4147 
L 1259 4147 
z
M 628 4666 
L 2053 4666 
Q 2838 4666 3239 4311 
Q 3641 3956 3641 3272 
Q 3641 2581 3239 2228 
Q 2838 1875 2053 1875 
L 1259 1875 
L 1259 0 
L 628 0 
L 628 4666 
z
" transform="scale(0.015625)"/>
       <path id="DejaVuSans-6f" d="M 1959 3097 
Q 1497 3097 1228 2736 
Q 959 2375 959 1747 
Q 959 1119 1226 758 
Q 1494 397 1959 397 
Q 2419 397 2687 759 
Q 2956 1122 2956 1747 
Q 2956 2369 2687 2733 
Q 2419 3097 1959 3097 
z
M 1959 3584 
Q 2709 3584 3137 3096 
Q 3566 2609 3566 1747 
Q 3566 888 3137 398 
Q 2709 -91 1959 -91 
Q 1206 -91 779 398 
Q 353 888 353 1747 
Q 353 2609 779 3096 
Q 1206 3584 1959 3584 
z
" transform="scale(0.015625)"/>
       <path id="DejaVuSans-73" d="M 2834 3397 
L 2834 2853 
Q 2591 2978 2328 3040 
Q 2066 3103 1784 3103 
Q 1356 3103 1142 2972 
Q 928 2841 928 2578 
Q 928 2378 1081 2264 
Q 1234 2150 1697 2047 
L 1894 2003 
Q 2506 1872 2764 1633 
Q 3022 1394 3022 966 
Q 3022 478 2636 193 
Q 2250 -91 1575 -91 
Q 1294 -91 989 -36 
Q 684 19 347 128 
L 347 722 
Q 666 556 975 473 
Q 1284 391 1588 391 
Q 1994 391 2212 530 
Q 2431 669 2431 922 
Q 2431 1156 2273 1281 
Q 2116 1406 1581 1522 
L 1381 1569 
Q 847 1681 609 1914 
Q 372 2147 372 2553 
Q 372 3047 722 3315 
Q 1072 3584 1716 3584 
Q 2034 3584 2315 3537 
Q 2597 3491 2834 3397 
z
" transform="scale(0.015625)"/>
       <path id="DejaVuSans-69" d="M 603 3500 
L 1178 3500 
L 1178 0 
L 603 0 
L 603 3500 
z
M 603 4863 
L 1178 4863 
L 1178 4134 
L 603 4134 
L 603 4863 
z
" transform="scale(0.015625)"/>
       <path id="DejaVuSans-74" d="M 1172 4494 
L 1172 3500 
L 2356 3500 
L 2356 3053 
L 1172 3053 
L 1172 1153 
Q 1172 725 1289 603 
Q 1406 481 1766 481 
L 2356 481 
L 2356 0 
L 1766 0 
Q 1100 0 847 248 
Q 594 497 594 1153 
L 594 3053 
L 172 3053 
L 172 3500 
L 594 3500 
L 594 4494 
L 1172 4494 
z
" transform="scale(0.015625)"/>
       <path id="DejaVuSans-6e" d="M 3513 2113 
L 3513 0 
L 2938 0 
L 2938 2094 
Q 2938 2591 2744 2837 
Q 2550 3084 2163 3084 
Q 1697 3084 1428 2787 
Q 1159 2491 1159 1978 
L 1159 0 
L 581 0 
L 581 3500 
L 1159 3500 
L 1159 2956 
Q 1366 3272 1645 3428 
Q 1925 3584 2291 3584 
Q 2894 3584 3203 3211 
Q 3513 2838 3513 2113 
z
" transform="scale(0.015625)"/>
       <path id="DejaVuSans-20" transform="scale(0.015625)"/>
       <path id="DejaVuSans-28" d="M 1984 4856 
Q 1566 4138 1362 3434 
Q 1159 2731 1159 2009 
Q 1159 1288 1364 580 
Q 1569 -128 1984 -844 
L 1484 -844 
Q 1016 -109 783 600 
Q 550 1309 550 2009 
Q 550 2706 781 3412 
Q 1013 4119 1484 4856 
L 1984 4856 
z
" transform="scale(0.015625)"/>
       <path id="DejaVuSans-6d" d="M 3328 2828 
Q 3544 3216 3844 3400 
Q 4144 3584 4550 3584 
Q 5097 3584 5394 3201 
Q 5691 2819 5691 2113 
L 5691 0 
L 5113 0 
L 5113 2094 
Q 5113 2597 4934 2840 
Q 4756 3084 4391 3084 
Q 3944 3084 3684 2787 
Q 3425 2491 3425 1978 
L 3425 0 
L 2847 0 
L 2847 2094 
Q 2847 2600 2669 2842 
Q 2491 3084 2119 3084 
Q 1678 3084 1418 2786 
Q 1159 2488 1159 1978 
L 1159 0 
L 581 0 
L 581 3500 
L 1159 3500 
L 1159 2956 
Q 1356 3278 1631 3431 
Q 1906 3584 2284 3584 
Q 2666 3584 2933 3390 
Q 3200 3197 3328 2828 
z
" transform="scale(0.015625)"/>
       <path id="DejaVuSans-29" d="M 513 4856 
L 1013 4856 
Q 1481 4119 1714 3412 
Q 1947 2706 1947 2009 
Q 1947 1309 1714 600 
Q 1481 -109 1013 -844 
L 513 -844 
Q 928 -128 1133 580 
Q 1338 1288 1338 2009 
Q 1338 2731 1133 3434 
Q 928 4138 513 4856 
z
" transform="scale(0.015625)"/>
      </defs>
      <use xlink:href="#DejaVuSans-50"/>
      <use xlink:href="#DejaVuSans-6f" transform="translate(56.677734 0)"/>
      <use xlink:href="#DejaVuSans-73" transform="translate(117.859375 0)"/>
      <use xlink:href="#DejaVuSans-69" transform="translate(169.958984 0)"/>
      <use xlink:href="#DejaVuSans-74" transform="translate(197.742188 0)"/>
      <use xlink:href="#DejaVuSans-69" transform="translate(236.951172 0)"/>
      <use xlink:href="#DejaVuSans-6f" transform="translate(264.734375 0)"/>
      <use xlink:href="#DejaVuSans-6e" transform="translate(325.916016 0)"/>
      <use xlink:href="#DejaVuSans-20" transform="translate(389.294922 0)"/>
      <use xlink:href="#DejaVuSans-28" transform="translate(421.082031 0)"/>
      <use xlink:href="#DejaVuSans-6d" transform="translate(460.095703 0)"/>
      <use xlink:href="#DejaVuSans-29" transform="translate(557.507812 0)"/>
     </g>
    </g>
   </g>
   <g id="matplotlib.axis_2">
    <g id="ytick_1">
     <g id="line2d_19">
      <defs>
       <path id="mbd54590cc6" d="M 0 0 
L 4 0 
" style="stroke: #000000"/>
      </defs>
      <g>
       <use xlink:href="#mbd54590cc6" x="42.839375" y="215.68968" style="stroke: #000000"/>
      </g>
     </g>
     <g id="line2d_20">
      <defs>
       <path id="m3f8616084b" d="M 0 0 
L -4 0 
" style="stroke: #000000"/>
      </defs>
      <g>
       <use xlink:href="#m3f8616084b" x="405.31969" y="215.68968" style="stroke: #000000"/>
      </g>
     </g>
     <g id="text_11">
      <!-- 0.0 -->
      <g transform="translate(21.845938 219.868821) scale(0.11 -0.11)">
       <defs>
        <path id="DejaVuSans-2e" d="M 684 794 
L 1344 794 
L 1344 0 
L 684 0 
L 684 794 
z
" transform="scale(0.015625)"/>
       </defs>
       <use xlink:href="#DejaVuSans-30"/>
       <use xlink:href="#DejaVuSans-2e" transform="translate(63.623047 0)"/>
       <use xlink:href="#DejaVuSans-30" transform="translate(95.410156 0)"/>
      </g>
     </g>
    </g>
    <g id="ytick_2">
     <g id="line2d_21">
      <g>
       <use xlink:href="#mbd54590cc6" x="42.839375" y="178.857003" style="stroke: #000000"/>
      </g>
     </g>
     <g id="line2d_22">
      <g>
       <use xlink:href="#m3f8616084b" x="405.31969" y="178.857003" style="stroke: #000000"/>
      </g>
     </g>
     <g id="text_12">
      <!-- 0.2 -->
      <g transform="translate(21.845938 183.036144) scale(0.11 -0.11)">
       <use xlink:href="#DejaVuSans-30"/>
       <use xlink:href="#DejaVuSans-2e" transform="translate(63.623047 0)"/>
       <use xlink:href="#DejaVuSans-32" transform="translate(95.410156 0)"/>
      </g>
     </g>
    </g>
    <g id="ytick_3">
     <g id="line2d_23">
      <g>
       <use xlink:href="#mbd54590cc6" x="42.839375" y="142.024326" style="stroke: #000000"/>
      </g>
     </g>
     <g id="line2d_24">
      <g>
       <use xlink:href="#m3f8616084b" x="405.31969" y="142.024326" style="stroke: #000000"/>
      </g>
     </g>
     <g id="text_13">
      <!-- 0.4 -->
      <g transform="translate(21.845938 146.203466) scale(0.11 -0.11)">
       <defs>
        <path id="DejaVuSans-34" d="M 2419 4116 
L 825 1625 
L 2419 1625 
L 2419 4116 
z
M 2253 4666 
L 3047 4666 
L 3047 1625 
L 3713 1625 
L 3713 1100 
L 3047 1100 
L 3047 0 
L 2419 0 
L 2419 1100 
L 313 1100 
L 313 1709 
L 2253 4666 
z
" transform="scale(0.015625)"/>
       </defs>
       <use xlink:href="#DejaVuSans-30"/>
       <use xlink:href="#DejaVuSans-2e" transform="translate(63.623047 0)"/>
       <use xlink:href="#DejaVuSans-34" transform="translate(95.410156 0)"/>
      </g>
     </g>
    </g>
    <g id="ytick_4">
     <g id="line2d_25">
      <g>
       <use xlink:href="#mbd54590cc6" x="42.839375" y="105.191649" style="stroke: #000000"/>
      </g>
     </g>
     <g id="line2d_26">
      <g>
       <use xlink:href="#m3f8616084b" x="405.31969" y="105.191649" style="stroke: #000000"/>
      </g>
     </g>
     <g id="text_14">
      <!-- 0.6 -->
      <g transform="translate(21.845938 109.370789) scale(0.11 -0.11)">
       <defs>
        <path id="DejaVuSans-36" d="M 2113 2584 
Q 1688 2584 1439 2293 
Q 1191 2003 1191 1497 
Q 1191 994 1439 701 
Q 1688 409 2113 409 
Q 2538 409 2786 701 
Q 3034 994 3034 1497 
Q 3034 2003 2786 2293 
Q 2538 2584 2113 2584 
z
M 3366 4563 
L 3366 3988 
Q 3128 4100 2886 4159 
Q 2644 4219 2406 4219 
Q 1781 4219 1451 3797 
Q 1122 3375 1075 2522 
Q 1259 2794 1537 2939 
Q 1816 3084 2150 3084 
Q 2853 3084 3261 2657 
Q 3669 2231 3669 1497 
Q 3669 778 3244 343 
Q 2819 -91 2113 -91 
Q 1303 -91 875 529 
Q 447 1150 447 2328 
Q 447 3434 972 4092 
Q 1497 4750 2381 4750 
Q 2619 4750 2861 4703 
Q 3103 4656 3366 4563 
z
" transform="scale(0.015625)"/>
       </defs>
       <use xlink:href="#DejaVuSans-30"/>
       <use xlink:href="#DejaVuSans-2e" transform="translate(63.623047 0)"/>
       <use xlink:href="#DejaVuSans-36" transform="translate(95.410156 0)"/>
      </g>
     </g>
    </g>
    <g id="ytick_5">
     <g id="line2d_27">
      <g>
       <use xlink:href="#mbd54590cc6" x="42.839375" y="68.358971" style="stroke: #000000"/>
      </g>
     </g>
     <g id="line2d_28">
      <g>
       <use xlink:href="#m3f8616084b" x="405.31969" y="68.358971" style="stroke: #000000"/>
      </g>
     </g>
     <g id="text_15">
      <!-- 0.8 -->
      <g transform="translate(21.845938 72.538112) scale(0.11 -0.11)">
       <defs>
        <path id="DejaVuSans-38" d="M 2034 2216 
Q 1584 2216 1326 1975 
Q 1069 1734 1069 1313 
Q 1069 891 1326 650 
Q 1584 409 2034 409 
Q 2484 409 2743 651 
Q 3003 894 3003 1313 
Q 3003 1734 2745 1975 
Q 2488 2216 2034 2216 
z
M 1403 2484 
Q 997 2584 770 2862 
Q 544 3141 544 3541 
Q 544 4100 942 4425 
Q 1341 4750 2034 4750 
Q 2731 4750 3128 4425 
Q 3525 4100 3525 3541 
Q 3525 3141 3298 2862 
Q 3072 2584 2669 2484 
Q 3125 2378 3379 2068 
Q 3634 1759 3634 1313 
Q 3634 634 3220 271 
Q 2806 -91 2034 -91 
Q 1263 -91 848 271 
Q 434 634 434 1313 
Q 434 1759 690 2068 
Q 947 2378 1403 2484 
z
M 1172 3481 
Q 1172 3119 1398 2916 
Q 1625 2713 2034 2713 
Q 2441 2713 2670 2916 
Q 2900 3119 2900 3481 
Q 2900 3844 2670 4047 
Q 2441 4250 2034 4250 
Q 1625 4250 1398 4047 
Q 1172 3844 1172 3481 
z
" transform="scale(0.015625)"/>
       </defs>
       <use xlink:href="#DejaVuSans-30"/>
       <use xlink:href="#DejaVuSans-2e" transform="translate(63.623047 0)"/>
       <use xlink:href="#DejaVuSans-38" transform="translate(95.410156 0)"/>
      </g>
     </g>
    </g>
    <g id="ytick_6">
     <g id="line2d_29">
      <g>
       <use xlink:href="#mbd54590cc6" x="42.839375" y="31.526294" style="stroke: #000000"/>
      </g>
     </g>
     <g id="line2d_30">
      <g>
       <use xlink:href="#m3f8616084b" x="405.31969" y="31.526294" style="stroke: #000000"/>
      </g>
     </g>
     <g id="text_16">
      <!-- 1.0 -->
      <g transform="translate(21.845938 35.705435) scale(0.11 -0.11)">
       <use xlink:href="#DejaVuSans-31"/>
       <use xlink:href="#DejaVuSans-2e" transform="translate(63.623047 0)"/>
       <use xlink:href="#DejaVuSans-30" transform="translate(95.410156 0)"/>
      </g>
     </g>
    </g>
    <g id="text_17">
     <!-- Magnetic Field (T) -->
     <g transform="translate(15.558281 172.63705) rotate(-90) scale(0.11 -0.11)">
      <defs>
       <path id="DejaVuSans-4d" d="M 628 4666 
L 1569 4666 
L 2759 1491 
L 3956 4666 
L 4897 4666 
L 4897 0 
L 4281 0 
L 4281 4097 
L 3078 897 
L 2444 897 
L 1241 4097 
L 1241 0 
L 628 0 
L 628 4666 
z
" transform="scale(0.015625)"/>
       <path id="DejaVuSans-61" d="M 2194 1759 
Q 1497 1759 1228 1600 
Q 959 1441 959 1056 
Q 959 750 1161 570 
Q 1363 391 1709 391 
Q 2188 391 2477 730 
Q 2766 1069 2766 1631 
L 2766 1759 
L 2194 1759 
z
M 3341 1997 
L 3341 0 
L 2766 0 
L 2766 531 
Q 2569 213 2275 61 
Q 1981 -91 1556 -91 
Q 1019 -91 701 211 
Q 384 513 384 1019 
Q 384 1609 779 1909 
Q 1175 2209 1959 2209 
L 2766 2209 
L 2766 2266 
Q 2766 2663 2505 2880 
Q 2244 3097 1772 3097 
Q 1472 3097 1187 3025 
Q 903 2953 641 2809 
L 641 3341 
Q 956 3463 1253 3523 
Q 1550 3584 1831 3584 
Q 2591 3584 2966 3190 
Q 3341 2797 3341 1997 
z
" transform="scale(0.015625)"/>
       <path id="DejaVuSans-67" d="M 2906 1791 
Q 2906 2416 2648 2759 
Q 2391 3103 1925 3103 
Q 1463 3103 1205 2759 
Q 947 2416 947 1791 
Q 947 1169 1205 825 
Q 1463 481 1925 481 
Q 2391 481 2648 825 
Q 2906 1169 2906 1791 
z
M 3481 434 
Q 3481 -459 3084 -895 
Q 2688 -1331 1869 -1331 
Q 1566 -1331 1297 -1286 
Q 1028 -1241 775 -1147 
L 775 -588 
Q 1028 -725 1275 -790 
Q 1522 -856 1778 -856 
Q 2344 -856 2625 -561 
Q 2906 -266 2906 331 
L 2906 616 
Q 2728 306 2450 153 
Q 2172 0 1784 0 
Q 1141 0 747 490 
Q 353 981 353 1791 
Q 353 2603 747 3093 
Q 1141 3584 1784 3584 
Q 2172 3584 2450 3431 
Q 2728 3278 2906 2969 
L 2906 3500 
L 3481 3500 
L 3481 434 
z
" transform="scale(0.015625)"/>
       <path id="DejaVuSans-65" d="M 3597 1894 
L 3597 1613 
L 953 1613 
Q 991 1019 1311 708 
Q 1631 397 2203 397 
Q 2534 397 2845 478 
Q 3156 559 3463 722 
L 3463 178 
Q 3153 47 2828 -22 
Q 2503 -91 2169 -91 
Q 1331 -91 842 396 
Q 353 884 353 1716 
Q 353 2575 817 3079 
Q 1281 3584 2069 3584 
Q 2775 3584 3186 3129 
Q 3597 2675 3597 1894 
z
M 3022 2063 
Q 3016 2534 2758 2815 
Q 2500 3097 2075 3097 
Q 1594 3097 1305 2825 
Q 1016 2553 972 2059 
L 3022 2063 
z
" transform="scale(0.015625)"/>
       <path id="DejaVuSans-63" d="M 3122 3366 
L 3122 2828 
Q 2878 2963 2633 3030 
Q 2388 3097 2138 3097 
Q 1578 3097 1268 2742 
Q 959 2388 959 1747 
Q 959 1106 1268 751 
Q 1578 397 2138 397 
Q 2388 397 2633 464 
Q 2878 531 3122 666 
L 3122 134 
Q 2881 22 2623 -34 
Q 2366 -91 2075 -91 
Q 1284 -91 818 406 
Q 353 903 353 1747 
Q 353 2603 823 3093 
Q 1294 3584 2113 3584 
Q 2378 3584 2631 3529 
Q 2884 3475 3122 3366 
z
" transform="scale(0.015625)"/>
       <path id="DejaVuSans-46" d="M 628 4666 
L 3309 4666 
L 3309 4134 
L 1259 4134 
L 1259 2759 
L 3109 2759 
L 3109 2228 
L 1259 2228 
L 1259 0 
L 628 0 
L 628 4666 
z
" transform="scale(0.015625)"/>
       <path id="DejaVuSans-6c" d="M 603 4863 
L 1178 4863 
L 1178 0 
L 603 0 
L 603 4863 
z
" transform="scale(0.015625)"/>
       <path id="DejaVuSans-64" d="M 2906 2969 
L 2906 4863 
L 3481 4863 
L 3481 0 
L 2906 0 
L 2906 525 
Q 2725 213 2448 61 
Q 2172 -91 1784 -91 
Q 1150 -91 751 415 
Q 353 922 353 1747 
Q 353 2572 751 3078 
Q 1150 3584 1784 3584 
Q 2172 3584 2448 3432 
Q 2725 3281 2906 2969 
z
M 947 1747 
Q 947 1113 1208 752 
Q 1469 391 1925 391 
Q 2381 391 2643 752 
Q 2906 1113 2906 1747 
Q 2906 2381 2643 2742 
Q 2381 3103 1925 3103 
Q 1469 3103 1208 2742 
Q 947 2381 947 1747 
z
" transform="scale(0.015625)"/>
       <path id="DejaVuSans-54" d="M -19 4666 
L 3928 4666 
L 3928 4134 
L 2272 4134 
L 2272 0 
L 1638 0 
L 1638 4134 
L -19 4134 
L -19 4666 
z
" transform="scale(0.015625)"/>
      </defs>
      <use xlink:href="#DejaVuSans-4d"/>
      <use xlink:href="#DejaVuSans-61" transform="translate(86.279297 0)"/>
      <use xlink:href="#DejaVuSans-67" transform="translate(147.558594 0)"/>
      <use xlink:href="#DejaVuSans-6e" transform="translate(211.035156 0)"/>
      <use xlink:href="#DejaVuSans-65" transform="translate(274.414062 0)"/>
      <use xlink:href="#DejaVuSans-74" transform="translate(335.9375 0)"/>
      <use xlink:href="#DejaVuSans-69" transform="translate(375.146484 0)"/>
      <use xlink:href="#DejaVuSans-63" transform="translate(402.929688 0)"/>
      <use xlink:href="#DejaVuSans-20" transform="translate(457.910156 0)"/>
      <use xlink:href="#DejaVuSans-46" transform="translate(489.697266 0)"/>
      <use xlink:href="#DejaVuSans-69" transform="translate(539.966797 0)"/>
      <use xlink:href="#DejaVuSans-65" transform="translate(567.75 0)"/>
      <use xlink:href="#DejaVuSans-6c" transform="translate(629.273438 0)"/>
      <use xlink:href="#DejaVuSans-64" transform="translate(657.056641 0)"/>
      <use xlink:href="#DejaVuSans-20" transform="translate(720.533203 0)"/>
      <use xlink:href="#DejaVuSans-28" transform="translate(752.320312 0)"/>
      <use xlink:href="#DejaVuSans-54" transform="translate(791.333984 0)"/>
      <use xlink:href="#DejaVuSans-29" transform="translate(852.417969 0)"/>
     </g>
    </g>
   </g>
   <g id="line2d_31">
    <path d="M 59.315753 215.68968 
L 138.014804 215.585113 
L 138.640969 215.344607 
L 139.036442 214.956198 
L 139.366002 214.314759 
L 139.695563 213.112585 
L 139.992167 211.154485 
L 140.288772 207.714246 
L 140.585376 201.694848 
L 140.914936 189.761167 
L 141.244497 168.925275 
L 141.705882 122.687116 
L 142.299091 67.586716 
L 142.694563 48.918356 
L 143.090036 39.755465 
L 143.485509 35.402696 
L 143.880981 33.350479 
L 144.276454 32.384543 
L 144.704882 31.905475 
L 145.232179 31.665035 
L 146.089037 31.553375 
L 148.824389 31.526441 
L 302.531413 31.591565 
L 303.256446 31.786373 
L 303.684875 32.114969 
L 304.047391 32.701348 
L 304.376952 33.728833 
L 304.673556 35.402696 
L 304.970161 38.345115 
L 305.266765 43.501902 
L 305.596326 53.782601 
L 305.925886 72.059804 
L 306.321359 108.13538 
L 307.112304 182.696804 
L 307.507777 199.842154 
L 307.903249 208.198622 
L 308.298722 212.161745 
L 308.694195 214.02956 
L 309.089667 214.90863 
L 309.518096 215.344607 
L 310.078349 215.571109 
L 311.034074 215.670513 
L 314.692196 215.689662 
L 388.843312 215.68968 
L 388.843312 215.68968 
" clip-path="url(#p1e4c7b83ee)" style="fill: none; stroke: #8000ff; stroke-width: 1.5; stroke-linecap: square"/>
   </g>
   <g id="line2d_32">
    <path d="M 59.315753 215.68968 
L 142.167266 215.59937 
L 142.397959 215.287791 
L 142.628651 214.527793 
L 142.925256 212.660335 
L 143.320728 208.583382 
L 143.946893 199.405338 
L 145.56174 170.966123 
L 147.14363 145.349368 
L 148.527784 126.488589 
L 149.878983 111.038106 
L 151.230181 98.089505 
L 152.581379 87.247053 
L 153.932577 78.170179 
L 155.283775 70.571806 
L 156.634973 64.211196 
L 157.986171 58.88674 
L 159.337369 54.429651 
L 160.721523 50.615664 
L 162.105678 47.436802 
L 163.522788 44.729913 
L 164.972854 42.436134 
L 166.455876 40.501828 
L 168.004811 38.8467 
L 169.619657 37.445222 
L 171.333372 36.25019 
L 173.211867 35.215561 
L 175.255142 34.345731 
L 177.562066 33.607506 
L 180.231506 32.991005 
L 183.428243 32.48802 
L 187.415925 32.095338 
L 192.721849 31.809368 
L 200.631302 31.626261 
L 215.626305 31.540189 
L 284.10898 31.526296 
L 306.947524 31.628622 
L 307.178216 31.965192 
L 307.408909 32.764349 
L 307.705513 34.690527 
L 308.133942 39.253959 
L 308.793063 49.176942 
L 312.714833 113.265706 
L 314.066031 129.913875 
L 315.417229 143.879087 
L 316.768427 155.575538 
L 318.119625 165.367932 
L 319.470824 173.565402 
L 320.822022 180.427542 
L 322.17322 186.171835 
L 323.524418 190.98037 
L 324.908572 195.095094 
L 326.292726 198.524613 
L 327.709836 201.444943 
L 329.126947 203.868431 
L 330.577013 205.922059 
L 332.092991 207.688626 
L 333.674882 209.192296 
L 335.35564 210.481579 
L 337.168223 211.586825 
L 339.145586 212.526854 
L 341.353642 213.324414 
L 343.858302 213.988568 
L 346.824346 214.538305 
L 350.449512 214.975134 
L 355.129271 215.303694 
L 361.753438 215.52825 
L 372.826671 215.652086 
L 388.843312 215.685112 
L 388.843312 215.685112 
" clip-path="url(#p1e4c7b83ee)" style="fill: none; stroke: #2adddd; stroke-width: 1.5; stroke-linecap: square"/>
   </g>
   <g id="line2d_33">
    <path d="M 59.315753 215.68968 
L 142.991168 215.59099 
L 143.353684 215.29493 
L 143.716201 214.654256 
L 144.14463 213.350014 
L 144.671926 210.920618 
L 145.364003 206.562206 
L 146.385641 198.504795 
L 148.56074 179.023783 
L 151.098356 157.111936 
L 153.108676 141.673461 
L 155.020127 128.664195 
L 156.931578 117.162406 
L 158.810072 107.177494 
L 160.688567 98.353786 
L 162.600018 90.429929 
L 164.511469 83.445285 
L 166.42292 77.288753 
L 168.334371 71.862225 
L 170.278778 67.001878 
L 172.223185 62.727182 
L 174.200549 58.907919 
L 176.210868 55.503929 
L 178.254143 52.477467 
L 180.330374 49.793209 
L 182.472517 47.383688 
L 184.680573 45.232213 
L 186.987497 43.295553 
L 189.393288 41.566779 
L 191.930904 40.017703 
L 194.6333 38.629905 
L 197.533433 37.391832 
L 200.697214 36.285949 
L 204.190555 35.305423 
L 208.079369 34.449548 
L 212.49548 33.710126 
L 217.636624 33.081468 
L 223.76645 32.563787 
L 231.379298 32.153861 
L 241.397938 31.850142 
L 255.964512 31.650058 
L 281.999793 31.548473 
L 307.738469 31.621696 
L 308.100986 31.904927 
L 308.463502 32.527622 
L 308.858975 33.687803 
L 309.353316 35.863087 
L 310.012437 39.853745 
L 310.968162 47.188196 
L 312.747789 62.965526 
L 315.680878 88.62494 
L 317.691197 104.22771 
L 319.602648 117.387023 
L 321.514099 129.025026 
L 323.392594 139.129316 
L 325.271089 148.058885 
L 327.18254 156.07793 
L 329.093991 163.146521 
L 331.005442 169.37706 
L 332.916893 174.868825 
L 334.8613 179.787603 
L 336.805707 184.113689 
L 338.78307 187.978868 
L 340.793389 191.423781 
L 342.836664 194.486628 
L 344.912895 197.203157 
L 347.055039 199.641646 
L 349.263094 201.818986 
L 351.537062 203.75298 
L 353.942853 205.506349 
L 356.480469 207.077464 
L 359.182866 208.485006 
L 362.082998 209.740694 
L 365.213823 210.851793 
L 368.674208 211.840066 
L 372.530067 212.705418 
L 376.913221 213.455414 
L 381.988453 214.09165 
L 388.019411 214.616614 
L 388.843312 214.673436 
L 388.843312 214.673436 
" clip-path="url(#p1e4c7b83ee)" style="fill: none; stroke: #d4dd80; stroke-width: 1.5; stroke-linecap: square"/>
   </g>
   <g id="line2d_34">
    <path d="M 59.315753 215.68968 
L 144.47419 215.585388 
L 145.133311 215.300306 
L 145.72652 214.787774 
L 146.352685 213.931244 
L 147.077718 212.51907 
L 147.934575 210.306358 
L 148.989169 206.903864 
L 150.373323 201.604901 
L 152.416598 192.784456 
L 160.227183 158.277476 
L 163.094359 146.973033 
L 165.862667 136.944626 
L 168.59802 127.861471 
L 171.300416 119.643539 
L 174.002812 112.120856 
L 176.738164 105.157584 
L 179.473517 98.79475 
L 182.241825 92.914344 
L 185.010133 87.54775 
L 187.811398 82.594556 
L 190.645618 78.028584 
L 193.512795 73.82474 
L 196.445883 69.917203 
L 199.411928 66.332713 
L 202.443885 63.014237 
L 205.541754 59.950167 
L 208.738491 57.100563 
L 212.034096 54.461585 
L 215.428569 52.027825 
L 218.954866 49.772659 
L 222.645944 47.677371 
L 226.501802 45.745053 
L 230.555397 43.962386 
L 234.872639 42.308863 
L 239.453531 40.794094 
L 244.363982 39.405839 
L 249.669906 38.138552 
L 255.470172 36.985174 
L 261.830689 35.950308 
L 268.916241 35.026742 
L 276.891605 34.215723 
L 286.053387 33.513162 
L 296.79706 32.919368 
L 308.628283 32.484891 
L 309.48514 32.624084 
L 310.078349 32.941642 
L 310.671558 33.52233 
L 311.297723 34.458532 
L 312.022756 35.960389 
L 312.912569 38.363253 
L 314.000119 41.987712 
L 315.450185 47.656045 
L 317.691197 57.430104 
L 324.216495 86.289682 
L 327.149584 98.047371 
L 329.950848 108.36895 
L 332.6862 117.610281 
L 335.388596 125.974475 
L 338.090993 133.632443 
L 340.826345 140.721576 
L 343.561697 147.199703 
L 346.330006 153.186788 
L 349.098314 158.650798 
L 351.899578 163.693929 
L 354.733799 168.342818 
L 357.600975 172.623009 
L 360.501108 176.558919 
L 363.467152 180.212486 
L 366.499109 183.594914 
L 369.596978 186.718034 
L 372.760759 189.594149 
L 376.023408 192.261414 
L 379.384925 194.724665 
L 382.878267 197.010481 
L 386.536388 199.137456 
L 388.843312 200.352445 
L 388.843312 200.352445 
" clip-path="url(#p1e4c7b83ee)" style="fill: none; stroke: #ff0000; stroke-width: 1.5; stroke-linecap: square"/>
   </g>
   <g id="patch_3">
    <path d="M 42.839375 224.897849 
L 42.839375 22.318125 
" style="fill: none; stroke: #000000; stroke-width: 0.8; stroke-linejoin: miter; stroke-linecap: square"/>
   </g>
   <g id="patch_4">
    <path d="M 405.31969 224.897849 
L 405.31969 22.318125 
" style="fill: none; stroke: #000000; stroke-width: 0.8; stroke-linejoin: miter; stroke-linecap: square"/>
   </g>
   <g id="patch_5">
    <path d="M 42.839375 224.897849 
L 405.31969 224.897849 
" style="fill: none; stroke: #000000; stroke-width: 0.8; stroke-linejoin: miter; stroke-linecap: square"/>
   </g>
   <g id="patch_6">
    <path d="M 42.839375 22.318125 
L 405.31969 22.318125 
" style="fill: none; stroke: #000000; stroke-width: 0.8; stroke-linejoin: miter; stroke-linecap: square"/>
   </g>
   <g id="text_18">
    <!-- Magnetic Field Profile along x axis -->
    <g transform="translate(42.839375 16.318125) scale(0.12 -0.12)">
     <defs>
      <path id="DejaVuSans-72" d="M 2631 2963 
Q 2534 3019 2420 3045 
Q 2306 3072 2169 3072 
Q 1681 3072 1420 2755 
Q 1159 2438 1159 1844 
L 1159 0 
L 581 0 
L 581 3500 
L 1159 3500 
L 1159 2956 
Q 1341 3275 1631 3429 
Q 1922 3584 2338 3584 
Q 2397 3584 2469 3576 
Q 2541 3569 2628 3553 
L 2631 2963 
z
" transform="scale(0.015625)"/>
      <path id="DejaVuSans-66" d="M 2375 4863 
L 2375 4384 
L 1825 4384 
Q 1516 4384 1395 4259 
Q 1275 4134 1275 3809 
L 1275 3500 
L 2222 3500 
L 2222 3053 
L 1275 3053 
L 1275 0 
L 697 0 
L 697 3053 
L 147 3053 
L 147 3500 
L 697 3500 
L 697 3744 
Q 697 4328 969 4595 
Q 1241 4863 1831 4863 
L 2375 4863 
z
" transform="scale(0.015625)"/>
      <path id="DejaVuSans-78" d="M 3513 3500 
L 2247 1797 
L 3578 0 
L 2900 0 
L 1881 1375 
L 863 0 
L 184 0 
L 1544 1831 
L 300 3500 
L 978 3500 
L 1906 2253 
L 2834 3500 
L 3513 3500 
z
" transform="scale(0.015625)"/>
     </defs>
     <use xlink:href="#DejaVuSans-4d"/>
     <use xlink:href="#DejaVuSans-61" transform="translate(86.279297 0)"/>
     <use xlink:href="#DejaVuSans-67" transform="translate(147.558594 0)"/>
     <use xlink:href="#DejaVuSans-6e" transform="translate(211.035156 0)"/>
     <use xlink:href="#DejaVuSans-65" transform="translate(274.414062 0)"/>
     <use xlink:href="#DejaVuSans-74" transform="translate(335.9375 0)"/>
     <use xlink:href="#DejaVuSans-69" transform="translate(375.146484 0)"/>
     <use xlink:href="#DejaVuSans-63" transform="translate(402.929688 0)"/>
     <use xlink:href="#DejaVuSans-20" transform="translate(457.910156 0)"/>
     <use xlink:href="#DejaVuSans-46" transform="translate(489.697266 0)"/>
     <use xlink:href="#DejaVuSans-69" transform="translate(539.966797 0)"/>
     <use xlink:href="#DejaVuSans-65" transform="translate(567.75 0)"/>
     <use xlink:href="#DejaVuSans-6c" transform="translate(629.273438 0)"/>
     <use xlink:href="#DejaVuSans-64" transform="translate(657.056641 0)"/>
     <use xlink:href="#DejaVuSans-20" transform="translate(720.533203 0)"/>
     <use xlink:href="#DejaVuSans-50" transform="translate(752.320312 0)"/>
     <use xlink:href="#DejaVuSans-72" transform="translate(810.873047 0)"/>
     <use xlink:href="#DejaVuSans-6f" transform="translate(849.736328 0)"/>
     <use xlink:href="#DejaVuSans-66" transform="translate(910.917969 0)"/>
     <use xlink:href="#DejaVuSans-69" transform="translate(946.123047 0)"/>
     <use xlink:href="#DejaVuSans-6c" transform="translate(973.90625 0)"/>
     <use xlink:href="#DejaVuSans-65" transform="translate(1001.689453 0)"/>
     <use xlink:href="#DejaVuSans-20" transform="translate(1063.212891 0)"/>
     <use xlink:href="#DejaVuSans-61" transform="translate(1095 0)"/>
     <use xlink:href="#DejaVuSans-6c" transform="translate(1156.279297 0)"/>
     <use xlink:href="#DejaVuSans-6f" transform="translate(1184.0625 0)"/>
     <use xlink:href="#DejaVuSans-6e" transform="translate(1245.244141 0)"/>
     <use xlink:href="#DejaVuSans-67" transform="translate(1308.623047 0)"/>
     <use xlink:href="#DejaVuSans-20" transform="translate(1372.099609 0)"/>
     <use xlink:href="#DejaVuSans-78" transform="translate(1403.886719 0)"/>
     <use xlink:href="#DejaVuSans-20" transform="translate(1463.066406 0)"/>
     <use xlink:href="#DejaVuSans-61" transform="translate(1494.853516 0)"/>
     <use xlink:href="#DejaVuSans-78" transform="translate(1556.132812 0)"/>
     <use xlink:href="#DejaVuSans-69" transform="translate(1615.3125 0)"/>
     <use xlink:href="#DejaVuSans-73" transform="translate(1643.095703 0)"/>
    </g>
   </g>
   <g id="legend_1">
    <g id="patch_7">
     <path d="M 412.31969 154.464237 
L 499.202502 154.464237 
Q 501.202502 154.464237 501.202502 152.464237 
L 501.202502 94.751737 
Q 501.202502 92.751737 499.202502 92.751737 
L 412.31969 92.751737 
Q 410.31969 92.751737 410.31969 94.751737 
L 410.31969 152.464237 
Q 410.31969 154.464237 412.31969 154.464237 
z
" style="fill: #ffffff; opacity: 0.8; stroke: #cccccc; stroke-linejoin: miter"/>
    </g>
    <g id="line2d_35">
     <path d="M 414.31969 100.850175 
L 424.31969 100.850175 
L 434.31969 100.850175 
" style="fill: none; stroke: #8000ff; stroke-width: 1.5; stroke-linecap: square"/>
    </g>
    <g id="text_19">
     <!-- v=0 m/s -->
     <g transform="translate(442.31969 104.350175) scale(0.1 -0.1)">
      <defs>
       <path id="DejaVuSans-76" d="M 191 3500 
L 800 3500 
L 1894 563 
L 2988 3500 
L 3597 3500 
L 2284 0 
L 1503 0 
L 191 3500 
z
" transform="scale(0.015625)"/>
       <path id="DejaVuSans-3d" d="M 678 2906 
L 4684 2906 
L 4684 2381 
L 678 2381 
L 678 2906 
z
M 678 1631 
L 4684 1631 
L 4684 1100 
L 678 1100 
L 678 1631 
z
" transform="scale(0.015625)"/>
       <path id="DejaVuSans-2f" d="M 1625 4666 
L 2156 4666 
L 531 -594 
L 0 -594 
L 1625 4666 
z
" transform="scale(0.015625)"/>
      </defs>
      <use xlink:href="#DejaVuSans-76"/>
      <use xlink:href="#DejaVuSans-3d" transform="translate(59.179688 0)"/>
      <use xlink:href="#DejaVuSans-30" transform="translate(142.96875 0)"/>
      <use xlink:href="#DejaVuSans-20" transform="translate(206.591797 0)"/>
      <use xlink:href="#DejaVuSans-6d" transform="translate(238.378906 0)"/>
      <use xlink:href="#DejaVuSans-2f" transform="translate(335.791016 0)"/>
      <use xlink:href="#DejaVuSans-73" transform="translate(369.482422 0)"/>
     </g>
    </g>
    <g id="line2d_36">
     <path d="M 414.31969 115.5283 
L 424.31969 115.5283 
L 434.31969 115.5283 
" style="fill: none; stroke: #2adddd; stroke-width: 1.5; stroke-linecap: square"/>
    </g>
    <g id="text_20">
     <!-- v=50 m/s -->
     <g transform="translate(442.31969 119.0283) scale(0.1 -0.1)">
      <use xlink:href="#DejaVuSans-76"/>
      <use xlink:href="#DejaVuSans-3d" transform="translate(59.179688 0)"/>
      <use xlink:href="#DejaVuSans-35" transform="translate(142.96875 0)"/>
      <use xlink:href="#DejaVuSans-30" transform="translate(206.591797 0)"/>
      <use xlink:href="#DejaVuSans-20" transform="translate(270.214844 0)"/>
      <use xlink:href="#DejaVuSans-6d" transform="translate(302.001953 0)"/>
      <use xlink:href="#DejaVuSans-2f" transform="translate(399.414062 0)"/>
      <use xlink:href="#DejaVuSans-73" transform="translate(433.105469 0)"/>
     </g>
    </g>
    <g id="line2d_37">
     <path d="M 414.31969 130.206425 
L 424.31969 130.206425 
L 434.31969 130.206425 
" style="fill: none; stroke: #d4dd80; stroke-width: 1.5; stroke-linecap: square"/>
    </g>
    <g id="text_21">
     <!-- v=100 m/s -->
     <g transform="translate(442.31969 133.706425) scale(0.1 -0.1)">
      <use xlink:href="#DejaVuSans-76"/>
      <use xlink:href="#DejaVuSans-3d" transform="translate(59.179688 0)"/>
      <use xlink:href="#DejaVuSans-31" transform="translate(142.96875 0)"/>
      <use xlink:href="#DejaVuSans-30" transform="translate(206.591797 0)"/>
      <use xlink:href="#DejaVuSans-30" transform="translate(270.214844 0)"/>
      <use xlink:href="#DejaVuSans-20" transform="translate(333.837891 0)"/>
      <use xlink:href="#DejaVuSans-6d" transform="translate(365.625 0)"/>
      <use xlink:href="#DejaVuSans-2f" transform="translate(463.037109 0)"/>
      <use xlink:href="#DejaVuSans-73" transform="translate(496.728516 0)"/>
     </g>
    </g>
    <g id="line2d_38">
     <path d="M 414.31969 144.88455 
L 424.31969 144.88455 
L 434.31969 144.88455 
" style="fill: none; stroke: #ff0000; stroke-width: 1.5; stroke-linecap: square"/>
    </g>
    <g id="text_22">
     <!-- v=200 m/s -->
     <g transform="translate(442.31969 148.38455) scale(0.1 -0.1)">
      <use xlink:href="#DejaVuSans-76"/>
      <use xlink:href="#DejaVuSans-3d" transform="translate(59.179688 0)"/>
      <use xlink:href="#DejaVuSans-32" transform="translate(142.96875 0)"/>
      <use xlink:href="#DejaVuSans-30" transform="translate(206.591797 0)"/>
      <use xlink:href="#DejaVuSans-30" transform="translate(270.214844 0)"/>
      <use xlink:href="#DejaVuSans-20" transform="translate(333.837891 0)"/>
      <use xlink:href="#DejaVuSans-6d" transform="translate(365.625 0)"/>
      <use xlink:href="#DejaVuSans-2f" transform="translate(463.037109 0)"/>
      <use xlink:href="#DejaVuSans-73" transform="translate(496.728516 0)"/>
     </g>
    </g>
   </g>
  </g>
 </g>
 <defs>
  <clipPath id="p1e4c7b83ee">
   <rect x="42.839375" y="22.318125" width="362.480315" height="202.579724"/>
  </clipPath>
 </defs>
</svg>
